<svg width="375" height="364" viewBox="0 0 375 364" fill="none" xmlns="http://www.w3.org/2000/svg">
<g opacity="0.4" clip-path="url(#clip0)">
<g filter="url(#filter0_f)">
<path d="M520.94 347.074C465.254 349.337 409.011 335.712 360.531 308.213C291.148 268.858 239.534 203.223 170.046 164.053C118.05 134.743 58.7113 121.734 0.356224 109.21C-57.9989 96.6853 -117.356 83.9119 -169.569 54.9921C-184.079 46.9551 -197.927 37.7207 -210.924 27.4135C-225.928 9.89124 -233.591 -13.7294 -231.733 -36.7254C-229.876 -59.7215 -218.52 -81.8047 -200.899 -96.6899C-184.226 -110.773 -162.315 -118.269 -140.494 -118.206C-118.672 -118.142 -97.0658 -110.673 -79.3391 -97.9434C-59.1808 -83.4674 -44.4016 -62.8918 -29.5908 -42.9753C-14.78 -23.0587 0.93055 -2.97397 22.1693 9.86357C39.4285 20.2957 59.3532 25.323 79.0837 29.4897C98.8141 33.6564 118.87 37.1543 137.463 44.9635C158.572 53.8294 177 67.9159 195.152 81.8716C213.304 95.8272 231.692 109.955 252.757 118.924C290.356 134.933 332.779 133.117 373.626 131.94C414.473 130.763 457.348 130.962 493.369 150.263C527.342 168.467 551.766 203.487 557.114 241.666C562.462 279.845 548.602 320.231 520.94 347.074Z" fill="white" fill-opacity="0.102326"/>
</g>
<g opacity="0.396" filter="url(#filter1_f)">
<path d="M264.207 174.3C264.407 174.492 264.611 174.679 264.811 174.871C267.797 177.73 270.756 180.632 273.718 183.526C275.199 184.973 276.682 186.418 278.168 187.854C279.655 189.29 281.146 190.718 282.647 192.131C284.147 193.544 285.655 194.941 287.176 196.317C288.697 197.693 290.231 199.048 291.781 200.375C293.331 201.702 294.897 203.001 296.484 204.266C298.07 205.53 299.677 206.76 301.307 207.95C302.122 208.545 302.944 209.129 303.771 209.703C304.599 210.277 305.433 210.839 306.275 211.39C307.116 211.941 307.964 212.479 308.82 213.006C309.676 213.532 310.539 214.046 311.41 214.546C312.281 215.047 313.16 215.533 314.047 216.006C314.935 216.479 315.83 216.938 316.735 217.381C317.64 217.824 318.554 218.253 319.477 218.665C320.4 219.078 321.332 219.475 322.274 219.855C323.593 220.387 324.925 220.894 326.27 221.378C327.614 221.861 328.971 222.32 330.339 222.755C331.707 223.189 333.086 223.599 334.475 223.984C335.863 224.369 337.261 224.729 338.667 225.064C340.073 225.4 341.487 225.71 342.908 225.994C344.328 226.279 345.756 226.539 347.188 226.773C348.62 227.007 350.058 227.215 351.499 227.398C352.94 227.58 354.385 227.737 355.832 227.868C357.279 227.999 358.728 228.104 360.178 228.182C361.628 228.261 363.079 228.313 364.529 228.339C365.979 228.364 367.428 228.364 368.876 228.336C370.323 228.309 371.768 228.254 373.21 228.173C374.651 228.092 376.089 227.984 377.522 227.849C378.955 227.713 380.382 227.551 381.804 227.361C383.225 227.171 384.64 226.953 386.046 226.708C387.453 226.463 388.852 226.19 390.241 225.89C391.455 225.627 392.655 225.32 393.842 224.971C395.03 224.623 396.205 224.233 397.369 223.806C398.533 223.378 399.686 222.912 400.827 222.411C401.969 221.91 403.101 221.375 404.222 220.807C405.343 220.239 406.455 219.639 407.558 219.011C408.66 218.383 409.754 217.726 410.84 217.043C411.925 216.361 413.003 215.652 414.073 214.922C415.143 214.191 416.207 213.438 417.263 212.666C418.32 211.894 419.37 211.102 420.415 210.295C421.46 209.487 422.499 208.663 423.533 207.827C425.602 206.153 427.652 204.427 429.69 202.675C430.304 202.146 430.912 201.606 431.524 201.073C423.857 200.319 416.187 199.569 408.511 198.779C403.466 198.26 398.422 197.728 393.379 197.176C388.337 196.625 383.297 196.055 378.261 195.458C373.225 194.862 368.194 194.241 363.169 193.587C358.145 192.933 353.127 192.247 348.118 191.522C343.109 190.798 338.109 190.035 333.121 189.227C330.626 188.823 328.135 188.408 325.646 187.981C323.158 187.554 320.673 187.114 318.191 186.662C315.709 186.21 313.23 185.745 310.755 185.266C308.281 184.788 305.81 184.295 303.342 183.789C300.875 183.282 298.412 182.761 295.953 182.224C293.494 181.688 291.039 181.136 288.588 180.568C286.138 180.001 283.692 179.417 281.251 178.816C278.81 178.215 276.374 177.598 273.943 176.962C271.512 176.327 269.086 175.674 266.665 175.003C265.844 174.775 265.027 174.532 264.207 174.3V174.3Z" fill="white" fill-opacity="0.44186"/>
<path d="M146.077 115.678C147.275 116.496 148.47 117.318 149.669 118.133C152.254 119.891 154.842 121.642 157.436 123.382C160.03 125.121 162.63 126.849 165.238 128.559C167.847 130.269 170.463 131.961 173.092 133.631C175.72 135.3 178.359 136.947 181.012 138.565C183.665 140.184 186.331 141.773 189.014 143.329C191.697 144.886 194.396 146.408 197.113 147.891C198.472 148.632 199.836 149.364 201.204 150.085C202.573 150.806 203.947 151.516 205.325 152.215C206.704 152.915 208.089 153.603 209.479 154.279C210.869 154.955 212.264 155.62 213.666 156.271C215.067 156.923 216.475 157.562 217.889 158.188C219.302 158.814 220.723 159.426 222.149 160.025C223.576 160.624 225.009 161.209 226.45 161.779C227.89 162.349 229.337 162.904 230.792 163.444C233.152 164.321 235.518 165.174 237.892 166.007C240.265 166.839 242.645 167.649 245.031 168.439C247.417 169.229 249.809 169.997 252.207 170.746C254.605 171.495 257.009 172.223 259.419 172.932C261.011 173.401 262.61 173.848 264.207 174.3C262.912 173.065 261.615 171.834 260.307 170.62C258.797 169.218 257.275 167.834 255.739 166.473C254.203 165.112 252.653 163.774 251.084 162.467C249.515 161.16 247.927 159.883 246.318 158.642C245.126 157.724 243.946 156.782 242.775 155.822C241.603 154.861 240.441 153.882 239.285 152.889C236.973 150.903 234.687 148.86 232.409 146.8C230.131 144.739 227.86 142.66 225.579 140.6C224.438 139.569 223.294 138.544 222.146 137.528C220.997 136.512 219.843 135.506 218.682 134.514C217.521 133.521 216.352 132.543 215.173 131.584C213.995 130.624 212.807 129.684 211.606 128.767C210.406 127.85 209.193 126.956 207.966 126.091C206.739 125.225 205.497 124.388 204.239 123.583C202.98 122.779 201.706 122.008 200.411 121.274C199.117 120.54 197.804 119.843 196.469 119.189C195.801 118.862 195.128 118.546 194.45 118.24C193.771 117.935 193.087 117.64 192.397 117.358C191.707 117.075 191.011 116.805 190.309 116.546C189.607 116.288 188.898 116.042 188.183 115.809C187.591 115.615 186.996 115.436 186.4 115.271C185.803 115.105 185.205 114.953 184.605 114.813C184.004 114.673 183.402 114.546 182.799 114.431C182.195 114.316 181.59 114.213 180.983 114.121C179.769 113.937 178.548 113.797 177.322 113.696C176.096 113.595 174.864 113.533 173.628 113.503C172.391 113.473 171.149 113.476 169.904 113.505C168.658 113.534 167.408 113.59 166.155 113.666C164.902 113.742 163.646 113.839 162.387 113.95C161.128 114.061 159.867 114.186 158.604 114.32C156.077 114.588 153.544 114.891 151.01 115.178C149.365 115.365 147.721 115.517 146.077 115.678V115.678Z" fill="white" fill-opacity="0.01"/>
<path d="M-231.977 -30.8758C-230.975 -31.0818 -229.975 -31.2948 -228.971 -31.4893C-227.23 -31.8266 -225.487 -32.1466 -223.741 -32.449C-221.995 -32.7515 -220.246 -33.0365 -218.496 -33.3039C-216.746 -33.5714 -214.994 -33.8214 -213.24 -34.0537C-211.486 -34.286 -209.731 -34.5006 -207.975 -34.6976C-206.219 -34.8946 -204.462 -35.0739 -202.705 -35.2355C-200.947 -35.397 -199.189 -35.5409 -197.43 -35.6669C-195.672 -35.7929 -193.913 -35.9012 -192.155 -35.9915C-190.397 -36.0819 -188.64 -36.1541 -186.883 -36.2086C-185.126 -36.2631 -183.37 -36.2998 -181.615 -36.3184C-179.86 -36.3369 -178.106 -36.3373 -176.354 -36.3198C-174.602 -36.3022 -172.852 -36.2668 -171.104 -36.213C-169.356 -36.1592 -167.609 -36.0872 -165.866 -35.997C-164.123 -35.9069 -162.382 -35.7987 -160.644 -35.6721C-158.907 -35.5455 -157.172 -35.4004 -155.441 -35.2371C-153.709 -35.0739 -151.982 -34.8924 -150.258 -34.6924C-148.534 -34.4924 -146.815 -34.2667 -145.101 -34.0164C-143.387 -33.766 -141.677 -33.4911 -139.972 -33.192C-138.268 -32.893 -136.568 -32.57 -134.873 -32.2238C-133.177 -31.8777 -131.487 -31.5083 -129.801 -31.1166C-128.116 -30.725 -126.435 -30.3109 -124.759 -29.8754C-123.083 -29.4398 -121.411 -28.9828 -119.745 -28.5049C-118.078 -28.027 -116.417 -27.5284 -114.76 -27.0097C-113.103 -26.4911 -111.452 -25.9524 -109.804 -25.3947C-108.157 -24.8369 -106.515 -24.2602 -104.878 -23.6649C-103.24 -23.0697 -101.608 -22.4561 -99.9802 -21.8249C-98.3526 -21.1937 -96.7298 -20.5447 -95.1119 -19.8792C-93.4941 -19.2136 -91.8812 -18.5315 -90.2731 -17.8332C-88.6651 -17.135 -87.062 -16.4206 -85.4638 -15.6912C-83.8656 -14.9618 -82.2723 -14.2175 -80.684 -13.4585C-79.0956 -12.6996 -77.5121 -11.9262 -75.9336 -11.1393C-74.3551 -10.3524 -72.7818 -9.55188 -71.2132 -8.73866C-69.6447 -7.92543 -68.081 -7.09956 -66.5224 -6.2616C-64.9638 -5.42362 -63.4102 -4.57356 -61.8615 -3.71244C-60.3129 -2.85133 -58.7694 -1.97907 -57.2307 -1.0964C-55.6921 -0.21373 -54.1583 0.679276 -52.6297 1.5819C-49.5725 3.38715 -46.5356 5.23067 -43.5187 7.10615C-40.5019 8.98163 -37.5051 10.8891 -34.5287 12.8221C-31.5524 14.755 -28.5963 16.7136 -25.6607 18.6912C-22.7251 20.6688 -19.8101 22.6655 -16.9155 24.675C-14.0209 26.6845 -11.1468 28.7066 -8.29345 30.7352C-5.4401 32.7638 -2.60743 34.7987 0.20443 36.8337C1.11927 37.4957 2.01237 38.1821 2.88628 38.8902C3.7602 39.5984 4.615 40.3284 5.45296 41.0771C6.29092 41.8258 7.11193 42.5934 7.91891 43.3772C8.72587 44.1609 9.51875 44.9607 10.2997 45.774C11.0806 46.5872 11.8496 47.414 12.6095 48.2513C13.3694 49.0886 14.1201 49.9365 14.8639 50.7923C16.3514 52.5038 17.8117 54.2466 19.2646 55.999C20.7175 57.7513 22.1628 59.513 23.6208 61.2619C25.0788 63.0109 26.5494 64.7472 28.0521 66.4487C28.8034 67.2994 29.5627 68.1413 30.3327 68.9719C31.1027 69.8025 31.8833 70.6217 32.6769 71.4266C33.4705 72.2314 34.2773 73.0221 35.0994 73.7958C35.9216 74.5695 36.7594 75.3259 37.6151 76.0629C39.3151 77.527 41.0203 78.9992 42.735 80.4685C44.4498 81.9377 46.174 83.4041 47.9123 84.856C49.6506 86.308 51.4027 87.7456 53.1734 89.1579C54.944 90.5701 56.7332 91.9569 58.545 93.307C59.4509 93.9821 60.3623 94.6479 61.2801 95.3033C62.1979 95.9586 63.1223 96.6036 64.0531 97.2364C64.984 97.8693 65.9215 98.49 66.8666 99.0975C67.8116 99.705 68.7639 100.299 69.7242 100.879C70.6845 101.458 71.6527 102.023 72.6293 102.571C73.606 103.12 74.5909 103.652 75.585 104.167C76.579 104.682 77.5821 105.179 78.5947 105.657C79.6073 106.135 80.6294 106.595 81.6617 107.034C82.5735 107.421 83.4922 107.79 84.417 108.141C85.3417 108.492 86.2727 108.826 87.2094 109.143C88.146 109.459 89.0883 109.76 90.0356 110.045C90.983 110.33 91.9355 110.6 92.8925 110.856C93.8495 111.111 94.811 111.353 95.7766 111.582C96.7421 111.81 97.7115 112.026 98.6845 112.231C100.63 112.639 102.59 113.001 104.559 113.326C106.528 113.651 108.507 113.94 110.49 114.2C112.473 114.461 114.461 114.695 116.45 114.911C120.427 115.344 124.406 115.706 128.352 116.075C129.593 116.192 130.839 116.268 132.088 116.311C133.338 116.354 134.59 116.363 135.846 116.344C137.102 116.326 138.361 116.28 139.623 116.212C140.884 116.144 142.147 116.054 143.412 115.949C144.299 115.875 145.188 115.766 146.077 115.678C142.111 112.971 138.148 110.259 134.183 107.552C131.602 105.791 129.019 104.033 126.432 102.286C123.845 100.538 121.254 98.8011 118.656 97.0792C116.058 95.3572 113.453 93.6506 110.839 91.965C108.225 90.2794 105.602 88.6148 102.966 86.9765C100.287 85.3113 97.6208 83.622 94.9653 81.9107C92.3099 80.1994 89.6652 78.4659 87.0309 76.7127C84.3965 74.9595 81.7723 73.1866 79.157 71.3957C76.5417 69.6049 73.9352 67.7962 71.3369 65.972C68.7385 64.1477 66.1481 62.3079 63.5645 60.4545C60.9809 58.6012 58.4043 56.7345 55.8334 54.8563C50.6917 51.0999 45.5733 47.2981 40.4697 43.4678C35.3661 39.6376 30.2773 35.779 25.195 31.909C20.1126 28.039 15.0367 24.1576 9.95875 20.2819C4.88079 16.4063 -0.199303 12.5363 -5.28976 8.689C-10.3802 4.84173 -15.4812 1.01734 -20.6011 -2.76743C-23.161 -4.65982 -25.7257 -6.54227 -28.2962 -8.41264C-30.8666 -10.283 -33.4426 -12.1414 -36.0256 -13.9855C-38.6087 -15.8296 -41.1988 -17.6596 -43.7966 -19.4732C-46.3944 -21.2867 -48.9999 -23.0837 -51.6145 -24.8625C-54.2292 -26.6413 -56.8529 -28.4016 -59.4865 -30.1413C-62.1201 -31.881 -64.7636 -33.6003 -67.4183 -35.2967C-70.0729 -36.9931 -72.7388 -38.6667 -75.4166 -40.3155C-78.0944 -41.9643 -80.7844 -43.5883 -83.4876 -45.1853C-86.1907 -46.7822 -88.9069 -48.3522 -91.6374 -49.8931C-94.3679 -51.434 -97.1126 -52.946 -99.8727 -54.4265C-102.633 -55.907 -105.408 -57.3561 -108.2 -58.772C-110.991 -60.1879 -113.8 -61.5706 -116.625 -62.9176C-119.45 -64.2647 -122.293 -65.5762 -125.154 -66.85C-128.015 -68.1239 -130.895 -69.3601 -133.794 -70.5566C-136.693 -71.7531 -139.612 -72.9097 -142.551 -74.0246C-144.021 -74.582 -145.496 -75.1288 -146.976 -75.665C-148.456 -76.2012 -149.941 -76.7269 -151.432 -77.2413C-153.055 -77.8015 -154.684 -78.3502 -156.318 -78.8872C-157.951 -79.4242 -159.59 -79.9494 -161.234 -80.463C-162.878 -80.9766 -164.526 -81.4786 -166.179 -81.9685C-167.832 -82.4585 -169.49 -82.9367 -171.152 -83.4028C-172.814 -83.869 -174.481 -84.3232 -176.151 -84.7653C-177.822 -85.2075 -179.496 -85.6375 -181.175 -86.0555C-182.853 -86.4734 -184.535 -86.8794 -186.221 -87.273C-187.907 -87.6666 -189.597 -88.0478 -191.29 -88.4168C-192.983 -88.7857 -194.679 -89.1424 -196.378 -89.4866C-198.078 -89.8307 -199.78 -90.1624 -201.486 -90.4815C-203.182 -90.7991 -204.882 -91.1042 -206.584 -91.3968C-220.94 -76.8187 -230.084 -57.1379 -231.733 -36.7255C-231.891 -34.7787 -231.955 -32.8274 -231.977 -30.8758V-30.8758Z" fill="white" fill-opacity="0.437209"/>
<path d="M548.022 209.919C545.424 209.849 542.827 209.774 540.229 209.686C537.25 209.584 534.271 209.471 531.293 209.344C528.315 209.218 525.338 209.08 522.362 208.928C519.385 208.777 516.409 208.613 513.434 208.437C510.459 208.26 507.486 208.071 504.513 207.868C501.54 207.666 498.568 207.451 495.598 207.223C492.627 206.994 489.658 206.753 486.689 206.498C483.721 206.244 480.755 205.976 477.789 205.695C474.824 205.414 471.86 205.12 468.898 204.812C458.882 203.771 448.83 202.782 438.759 201.794C436.351 201.558 433.935 201.31 431.524 201.073C430.912 201.606 430.304 202.146 429.69 202.675C427.652 204.427 425.602 206.153 423.533 207.827C422.499 208.663 421.46 209.487 420.415 210.295C419.37 211.102 418.32 211.894 417.263 212.666C416.207 213.439 415.143 214.191 414.073 214.922C413.003 215.652 411.925 216.361 410.84 217.043C409.754 217.726 408.66 218.383 407.558 219.011C406.455 219.639 405.343 220.239 404.222 220.807C403.101 221.375 401.969 221.91 400.827 222.411C399.686 222.912 398.533 223.378 397.369 223.806C396.205 224.233 395.03 224.623 393.842 224.971C392.655 225.32 391.455 225.627 390.241 225.89C388.852 226.19 387.453 226.463 386.046 226.708C384.64 226.953 383.225 227.171 381.804 227.361C380.382 227.551 378.955 227.713 377.522 227.849C376.089 227.984 374.651 228.092 373.21 228.173C371.768 228.254 370.323 228.309 368.876 228.336C367.429 228.363 365.979 228.364 364.529 228.339C363.079 228.313 361.628 228.261 360.178 228.182C358.728 228.104 357.279 227.999 355.832 227.868C354.385 227.737 352.94 227.58 351.499 227.398C350.058 227.215 348.62 227.007 347.188 226.773C345.756 226.539 344.328 226.279 342.908 225.994C341.487 225.71 340.073 225.4 338.667 225.064C337.261 224.729 335.863 224.369 334.475 223.984C333.086 223.599 331.707 223.189 330.339 222.755C328.971 222.32 327.614 221.861 326.27 221.378C324.925 220.894 323.593 220.387 322.274 219.855C321.332 219.475 320.4 219.078 319.477 218.665C318.554 218.253 317.64 217.824 316.735 217.381C315.83 216.938 314.935 216.479 314.047 216.006C313.16 215.534 312.281 215.047 311.41 214.546C310.539 214.046 309.676 213.532 308.82 213.006C307.964 212.479 307.116 211.941 306.275 211.39C305.433 210.839 304.599 210.277 303.771 209.703C302.944 209.129 302.122 208.545 301.307 207.95C299.677 206.76 298.07 205.53 296.484 204.266C294.897 203.001 293.331 201.702 291.781 200.375C290.231 199.048 288.698 197.693 287.176 196.317C285.655 194.941 284.147 193.544 282.647 192.131C281.146 190.718 279.655 189.29 278.168 187.854C276.682 186.418 275.199 184.973 273.718 183.526C270.756 180.632 267.797 177.73 264.811 174.871C264.611 174.679 264.407 174.492 264.207 174.3C262.61 173.848 261.011 173.401 259.419 172.932C257.009 172.223 254.605 171.495 252.207 170.746C249.809 169.997 247.417 169.229 245.031 168.439C242.645 167.649 240.265 166.839 237.892 166.007C235.518 165.175 233.152 164.321 230.792 163.444C229.337 162.904 227.89 162.349 226.45 161.779C225.009 161.209 223.576 160.624 222.149 160.025C220.723 159.426 219.302 158.814 217.889 158.188C216.475 157.562 215.067 156.923 213.666 156.271C212.264 155.62 210.869 154.955 209.479 154.279C208.089 153.603 206.704 152.915 205.326 152.216C203.947 151.516 202.573 150.806 201.204 150.085C199.836 149.364 198.472 148.632 197.113 147.891C194.396 146.408 191.697 144.886 189.014 143.329C186.331 141.773 183.665 140.184 181.012 138.565C178.359 136.947 175.72 135.3 173.092 133.631C170.464 131.961 167.847 130.269 165.238 128.559C162.63 126.849 160.03 125.121 157.436 123.382C154.842 121.642 152.254 119.891 149.669 118.133C148.47 117.318 147.275 116.496 146.077 115.678C145.188 115.766 144.299 115.875 143.412 115.949C142.147 116.054 140.884 116.144 139.623 116.212C138.361 116.28 137.102 116.326 135.846 116.344C134.59 116.363 133.338 116.354 132.088 116.311C130.839 116.268 129.593 116.192 128.352 116.075C124.406 115.706 120.427 115.344 116.45 114.911C114.461 114.695 112.473 114.461 110.49 114.2C108.507 113.94 106.528 113.652 104.559 113.326C102.59 113.001 100.63 112.639 98.6844 112.231C97.7115 112.026 96.7421 111.811 95.7766 111.582C94.811 111.353 93.8495 111.111 92.8925 110.856C91.9355 110.6 90.983 110.33 90.0356 110.045C89.0883 109.76 88.146 109.459 87.2094 109.143C86.2727 108.826 85.3417 108.492 84.417 108.141C83.4922 107.79 82.5735 107.421 81.6617 107.034C80.6294 106.595 79.6073 106.135 78.5947 105.657C77.5821 105.179 76.579 104.682 75.585 104.167C74.5909 103.652 73.606 103.12 72.6293 102.571C71.6527 102.023 70.6844 101.458 69.7242 100.879C68.7639 100.299 67.8116 99.7051 66.8665 99.0975C65.9215 98.49 64.984 97.8693 64.0531 97.2365C63.1223 96.6036 62.1979 95.9587 61.2801 95.3033C60.3623 94.6479 59.4509 93.9821 58.545 93.3071C56.7332 91.9569 54.944 90.5701 53.1734 89.1579C51.4028 87.7456 49.6506 86.308 47.9123 84.8561C46.174 83.4041 44.4498 81.9377 42.735 80.4685C41.0203 78.9993 39.3151 77.527 37.6151 76.0629C36.7594 75.326 35.9216 74.5695 35.0995 73.7958C34.2773 73.0221 33.4705 72.2315 32.6769 71.4266C31.8833 70.6217 31.1027 69.8025 30.3327 68.9719C29.5627 68.1414 28.8035 67.2994 28.0521 66.4487C26.5493 64.7473 25.0788 63.0109 23.6208 61.262C22.1629 59.513 20.7175 57.7513 19.2646 55.999C17.8117 54.2467 16.3514 52.5038 14.8639 50.7923C14.1201 49.9366 13.3694 49.0886 12.6095 48.2514C11.8496 47.4141 11.0806 46.5873 10.2997 45.774C9.51875 44.9607 8.72588 44.161 7.91891 43.3772C7.11194 42.5935 6.29092 41.8258 5.45297 41.0771C4.61501 40.3284 3.76021 39.5984 2.88629 38.8903C2.01237 38.1821 1.11928 37.4958 0.204437 36.8337C-2.60742 34.7988 -5.44009 32.7638 -8.29343 30.7352C-11.1468 28.7066 -14.0209 26.6845 -16.9155 24.675C-19.8101 22.6655 -22.7251 20.6688 -25.6607 18.6912C-28.5963 16.7136 -31.5524 14.755 -34.5287 12.8221C-37.505 10.8892 -40.5018 8.98166 -43.5187 7.10619C-46.5356 5.23071 -49.5725 3.38718 -52.6297 1.58194C-54.1583 0.679314 -55.6921 -0.213692 -57.2307 -1.09636C-58.7694 -1.97903 -60.3129 -2.85129 -61.8615 -3.71241C-63.4102 -4.57353 -64.9638 -5.42359 -66.5224 -6.26156C-68.081 -7.09953 -69.6447 -7.9254 -71.2132 -8.73862C-72.7818 -9.55185 -74.3551 -10.3524 -75.9336 -11.1392C-77.5121 -11.9261 -79.0956 -12.6995 -80.684 -13.4585C-82.2723 -14.2174 -83.8656 -14.9618 -85.4638 -15.6912C-87.062 -16.4206 -88.6651 -17.1349 -90.2731 -17.8332C-91.8812 -18.5315 -93.4941 -19.2136 -95.1119 -19.8791C-96.7298 -20.5447 -98.3526 -21.1937 -99.9802 -21.8249C-101.608 -22.456 -103.24 -23.0696 -104.878 -23.6649C-106.515 -24.2602 -108.157 -24.8369 -109.804 -25.3946C-111.452 -25.9524 -113.103 -26.4911 -114.76 -27.0097C-116.417 -27.5283 -118.078 -28.027 -119.745 -28.5049C-121.411 -28.9828 -123.083 -29.4397 -124.759 -29.8753C-126.435 -30.3109 -128.115 -30.7249 -129.801 -31.1166C-131.487 -31.5082 -133.177 -31.8776 -134.873 -32.2238C-136.568 -32.5699 -138.268 -32.893 -139.972 -33.192C-141.677 -33.491 -143.387 -33.766 -145.101 -34.0163C-146.815 -34.2666 -148.534 -34.4924 -150.258 -34.6924C-151.982 -34.8924 -153.709 -35.0738 -155.441 -35.2371C-157.172 -35.4004 -158.907 -35.5454 -160.644 -35.6721C-162.382 -35.7987 -164.123 -35.9069 -165.866 -35.997C-167.609 -36.0871 -169.356 -36.1592 -171.104 -36.213C-172.852 -36.2667 -174.602 -36.3022 -176.354 -36.3197C-178.106 -36.3373 -179.86 -36.3369 -181.615 -36.3183C-183.37 -36.2998 -185.126 -36.2631 -186.883 -36.2086C-188.64 -36.1541 -190.397 -36.0818 -192.155 -35.9915C-193.913 -35.9012 -195.672 -35.7929 -197.43 -35.6668C-199.189 -35.5408 -200.947 -35.397 -202.705 -35.2354C-204.462 -35.0739 -206.219 -34.8945 -207.975 -34.6975C-209.731 -34.5005 -211.486 -34.286 -213.24 -34.0537C-214.994 -33.8214 -216.746 -33.5713 -218.496 -33.3039C-220.246 -33.0365 -221.995 -32.7515 -223.741 -32.449C-225.487 -32.1465 -227.23 -31.8266 -228.971 -31.4893C-229.975 -31.2947 -230.975 -31.0818 -231.977 -30.8757C-232.216 -9.77376 -224.658 11.3745 -210.924 27.4134C-197.927 37.7206 -184.079 46.9551 -169.569 54.9921C-117.355 83.9118 -57.9989 96.6852 0.356201 109.21C58.7113 121.734 118.05 134.743 170.046 164.053C239.533 203.223 291.148 268.858 360.531 308.213C409.011 335.711 465.254 349.337 520.94 347.074C548.603 320.231 562.462 279.844 557.114 241.666C555.58 230.715 552.47 220.027 548.022 209.919V209.919Z" fill="white" fill-opacity="0.167442"/>
<path d="M-140.494 -118.206C-162.315 -118.269 -184.226 -110.773 -200.899 -96.69C-202.878 -95.0176 -204.767 -93.242 -206.584 -91.3968C-204.882 -91.1041 -203.182 -90.799 -201.486 -90.4815C-199.78 -90.1623 -198.078 -89.8307 -196.378 -89.4865C-194.679 -89.1424 -192.983 -88.7857 -191.29 -88.4167C-189.597 -88.0478 -187.907 -87.6665 -186.221 -87.273C-184.535 -86.8794 -182.853 -86.4734 -181.175 -86.0554C-179.496 -85.6375 -177.822 -85.2075 -176.151 -84.7653C-174.481 -84.3231 -172.814 -83.869 -171.152 -83.4028C-169.49 -82.9366 -167.832 -82.4585 -166.179 -81.9685C-164.526 -81.4785 -162.878 -80.9765 -161.234 -80.4629C-159.59 -79.9493 -157.951 -79.4242 -156.318 -78.8872C-154.684 -78.3502 -153.055 -77.8015 -151.432 -77.2413C-149.941 -76.7268 -148.456 -76.2012 -146.976 -75.665C-145.496 -75.1288 -144.021 -74.5819 -142.551 -74.0245C-139.612 -72.9097 -136.693 -71.7531 -133.794 -70.5566C-130.895 -69.3601 -128.015 -68.1239 -125.154 -66.85C-122.293 -65.5761 -119.45 -64.2646 -116.625 -62.9176C-113.8 -61.5706 -110.991 -60.1879 -108.2 -58.772C-105.408 -57.3561 -102.633 -55.907 -99.8727 -54.4264C-97.1126 -52.9459 -94.3679 -51.434 -91.6374 -49.8931C-88.9069 -48.3522 -86.1907 -46.7822 -83.4876 -45.1852C-80.7844 -43.5883 -78.0944 -41.9643 -75.4166 -40.3155C-72.7388 -38.6667 -70.0729 -36.993 -67.4182 -35.2966C-64.7636 -33.6002 -62.1201 -31.881 -59.4865 -30.1413C-56.8529 -28.4016 -54.2292 -26.6413 -51.6145 -24.8625C-48.9999 -23.0837 -46.3944 -21.2867 -43.7966 -19.4731C-41.1988 -17.6596 -38.6087 -15.8296 -36.0256 -13.9855C-33.4426 -12.1414 -30.8666 -10.283 -28.2961 -8.41261C-25.7257 -6.54224 -23.161 -4.6598 -20.601 -2.76741C-15.4812 1.01737 -10.3802 4.84175 -5.28975 8.68902C-0.19928 12.5363 4.88081 16.4063 9.95877 20.282C15.0367 24.1576 20.1127 28.039 25.195 31.909C30.2773 35.779 35.3661 39.6376 40.4697 43.4678C45.5733 47.2981 50.6917 51.0999 55.8334 54.8563C58.4043 56.7345 60.981 58.6012 63.5646 60.4545C66.1481 62.3079 68.7385 64.1477 71.3369 65.972C73.9353 67.7962 76.5417 69.6049 79.157 71.3957C81.7723 73.1866 84.3965 74.9595 87.0309 76.7127C89.6652 78.4659 92.3099 80.1994 94.9653 81.9107C97.6209 83.622 100.287 85.3113 102.966 86.9765C105.602 88.6148 108.225 90.2794 110.839 91.965C113.453 93.6506 116.058 95.3572 118.656 97.0792C121.254 98.8011 123.846 100.538 126.433 102.286C129.019 104.033 131.602 105.791 134.183 107.552C138.148 110.259 142.111 112.971 146.077 115.678C147.721 115.517 149.365 115.365 151.01 115.178C153.544 114.891 156.077 114.588 158.604 114.32C159.867 114.186 161.128 114.061 162.387 113.95C163.646 113.839 164.902 113.742 166.155 113.666C167.408 113.59 168.658 113.534 169.904 113.505C171.149 113.476 172.391 113.473 173.628 113.503C174.864 113.533 176.096 113.595 177.322 113.696C178.548 113.797 179.769 113.937 180.983 114.121C181.59 114.213 182.195 114.316 182.799 114.431C183.402 114.546 184.005 114.673 184.605 114.813C185.205 114.953 185.803 115.105 186.4 115.271C186.996 115.436 187.591 115.615 188.183 115.809C188.898 116.042 189.607 116.288 190.309 116.546C191.011 116.805 191.707 117.075 192.397 117.358C193.088 117.64 193.771 117.935 194.45 118.24C195.128 118.546 195.801 118.862 196.469 119.189C197.804 119.843 199.117 120.54 200.411 121.274C201.706 122.008 202.981 122.779 204.239 123.583C205.497 124.388 206.739 125.225 207.966 126.09C209.193 126.956 210.406 127.85 211.606 128.767C212.807 129.684 213.995 130.624 215.173 131.584C216.352 132.543 217.521 133.521 218.682 134.514C219.843 135.506 220.997 136.512 222.146 137.528C223.295 138.544 224.438 139.569 225.579 140.6C227.86 142.66 230.131 144.739 232.409 146.8C234.687 148.86 236.973 150.903 239.285 152.889C240.441 153.882 241.603 154.861 242.775 155.822C243.946 156.782 245.126 157.724 246.318 158.642C247.927 159.883 249.515 161.16 251.084 162.467C252.653 163.774 254.203 165.112 255.739 166.473C257.275 167.834 258.797 169.218 260.307 170.62C261.615 171.834 262.912 173.065 264.207 174.3C265.027 174.532 265.844 174.775 266.665 175.003C269.086 175.674 271.512 176.327 273.943 176.962C276.374 177.598 278.81 178.215 281.251 178.816C283.692 179.417 286.138 180.001 288.588 180.568C291.039 181.136 293.494 181.688 295.953 182.224C298.412 182.761 300.875 183.282 303.342 183.789C305.81 184.295 308.281 184.788 310.755 185.266C313.23 185.745 315.709 186.21 318.191 186.662C320.673 187.114 323.158 187.554 325.646 187.981C328.135 188.408 330.626 188.823 333.121 189.227C338.109 190.035 343.109 190.798 348.118 191.522C353.127 192.247 358.145 192.933 363.169 193.587C368.194 194.241 373.225 194.862 378.261 195.458C383.297 196.055 388.337 196.625 393.379 197.176C398.422 197.728 403.466 198.26 408.511 198.779C416.187 199.57 423.857 200.319 431.524 201.073C432.943 199.839 434.363 198.606 435.774 197.362C437.795 195.581 439.81 193.799 441.826 192.04C443.843 190.281 445.861 188.545 447.887 186.858C448.9 186.015 449.915 185.183 450.934 184.367C451.952 183.551 452.973 182.751 453.997 181.968C455.022 181.186 456.05 180.422 457.083 179.68C458.116 178.938 459.154 178.217 460.197 177.521C461.24 176.825 462.289 176.154 463.343 175.511C464.398 174.867 465.459 174.252 466.527 173.667C467.595 173.083 468.671 172.529 469.754 172.01C470.837 171.491 471.928 171.006 473.028 170.558C474.128 170.11 475.237 169.699 476.355 169.329C477.474 168.959 478.602 168.63 479.74 168.344C480.31 168.201 480.882 168.069 481.456 167.948C482.031 167.827 482.609 167.717 483.189 167.62C483.769 167.522 484.352 167.436 484.938 167.362C485.524 167.287 486.113 167.225 486.705 167.176C487.297 167.126 487.892 167.089 488.49 167.065C489.088 167.041 489.69 167.03 490.294 167.031C490.899 167.033 491.507 167.048 492.118 167.077C492.729 167.106 493.344 167.148 493.962 167.205C495.055 167.305 496.142 167.42 497.223 167.55C498.304 167.68 499.378 167.826 500.447 167.985C501.515 168.145 502.576 168.32 503.632 168.509C504.688 168.698 505.738 168.901 506.781 169.118C507.825 169.336 508.863 169.567 509.895 169.813C510.927 170.058 511.953 170.318 512.973 170.591C513.993 170.864 515.007 171.15 516.016 171.45C517.025 171.75 518.028 172.064 519.026 172.39C520.023 172.716 521.016 173.056 522.002 173.408C522.855 173.712 523.702 174.031 524.547 174.354C515.531 164.716 505.012 156.501 493.369 150.263C457.348 130.962 414.473 130.762 373.626 131.94C332.779 133.117 290.356 134.933 252.757 118.924C231.692 109.955 213.304 95.827 195.152 81.8714C177 67.9157 158.571 53.8292 137.463 44.9633C118.87 37.1541 98.8143 33.6563 79.0838 29.4896C59.3534 25.3229 39.4286 20.2955 22.1695 9.86339C0.930679 -2.97416 -14.78 -23.0589 -29.5908 -42.9755C-44.4016 -62.8921 -59.1807 -83.4675 -79.3391 -97.9436C-97.0657 -110.673 -118.672 -118.143 -140.494 -118.206Z" fill="white" fill-opacity="0.255814"/>
</g>
</g>
<defs>
<filter id="filter0_f" x="-270.041" y="-156.24" width="866.321" height="541.591" filterUnits="userSpaceOnUse" color-interpolation-filters="sRGB">
<feFlood flood-opacity="0" result="BackgroundImageFix"/>
<feBlend mode="normal" in="SourceGraphic" in2="BackgroundImageFix" result="shape"/>
<feGaussianBlur stdDeviation="19.017" result="effect1_foregroundBlur"/>
</filter>
<filter id="filter1_f" x="-270.016" y="-156.24" width="866.295" height="541.589" filterUnits="userSpaceOnUse" color-interpolation-filters="sRGB">
<feFlood flood-opacity="0" result="BackgroundImageFix"/>
<feBlend mode="normal" in="SourceGraphic" in2="BackgroundImageFix" result="shape"/>
<feGaussianBlur stdDeviation="19.0167" result="effect1_foregroundBlur"/>
</filter>
<clipPath id="clip0">
<rect width="643" height="496" fill="white" transform="translate(-161.671 -132.268)"/>
</clipPath>
</defs>
</svg>
