<?xml version="1.0" encoding="UTF-8" standalone="no"?>
<!-- Created with Inkscape (http://www.inkscape.org/) -->

<svg
   xmlns:dc="http://purl.org/dc/elements/1.1/"
   xmlns:cc="http://creativecommons.org/ns#"
   xmlns:rdf="http://www.w3.org/1999/02/22-rdf-syntax-ns#"
   xmlns:svg="http://www.w3.org/2000/svg"
   xmlns="http://www.w3.org/2000/svg"
   xmlns:sodipodi="http://sodipodi.sourceforge.net/DTD/sodipodi-0.dtd"
   xmlns:inkscape="http://www.inkscape.org/namespaces/inkscape"
   width="210mm"
   height="297mm"
   viewBox="0 0 744.09448819 1052.3622047"
   id="svg2"
   version="1.1"
   inkscape:version="0.91 r13725"
   sodipodi:docname="Space capsule 01.svg">
  <defs
     id="defs4" />
  <sodipodi:namedview
     id="base"
     pagecolor="#ffffff"
     bordercolor="#666666"
     borderopacity="1.0"
     inkscape:pageopacity="0.0"
     inkscape:pageshadow="2"
     inkscape:zoom="0.7"
     inkscape:cx="227.55267"
     inkscape:cy="476.14823"
     inkscape:document-units="px"
     inkscape:current-layer="layer1"
     showgrid="false"
     inkscape:snap-others="false"
     inkscape:window-width="1920"
     inkscape:window-height="1017"
     inkscape:window-x="-8"
     inkscape:window-y="-8"
     inkscape:window-maximized="1">
    <inkscape:grid
       type="xygrid"
       id="grid4146" />
  </sodipodi:namedview>
  <metadata
     id="metadata7">
    <rdf:RDF>
      <cc:Work
         rdf:about="">
        <dc:format>image/svg+xml</dc:format>
        <dc:type
           rdf:resource="http://purl.org/dc/dcmitype/StillImage" />
        <dc:title></dc:title>
      </cc:Work>
    </rdf:RDF>
  </metadata>
  <g
     inkscape:label="Capa 1"
     inkscape:groupmode="layer"
     id="layer1">
    <g
       id="g4238"
       transform="matrix(1.0318166,0,0,1.0318166,-8.4443323,16.666168)">
      <path
         sodipodi:nodetypes="cccccccccccccccccc"
         inkscape:connector-curvature="0"
         id="path4136"
         d="M 518.90666,278.83153 C 456.79405,241.5314 386.10733,231.93225 338.92468,254.39023 l 0.24151,-0.19198 c -0.15043,0.0919 -0.31119,0.19148 -0.46185,0.28357 -5.87677,2.86268 -11.29853,6.19388 -16.21976,9.96564 -64.23234,39.66603 -146.39145,93.7317 -209.4445,164.94173 -1.395,1.48752 -2.73269,3.01481 -4.01231,4.581 -2.17461,2.51444 -4.32694,5.04778 -6.45123,7.60427 l 2.15089,-1.70439 c -1.04008,1.34362 -2.03856,2.7143 -2.99502,4.11146 -43.539861,72.4522 25.28847,193.76132 153.73263,270.952 128.23388,77.05365 267.44485,81.01871 311.20332,8.86318 l -0.0388,0.19852 c 0.0537,-0.12139 0.1052,-0.24417 0.15882,-0.36562 0.0281,-0.0375 0.0554,-0.0755 0.0832,-0.1131 4.49599,-7.48307 7.84842,-15.63464 10.02114,-24.36523 34.48063,-88.99345 49.17653,-189.32754 47.92617,-263.3166 C 627.6426,381.68775 585.16802,318.7239 518.9067,278.83155 Z"
         style="opacity:1;fill:#cccccc;fill-opacity:1;fill-rule:nonzero;stroke:#000000;stroke-width:5.72669411;stroke-linecap:round;stroke-linejoin:round;stroke-miterlimit:4;stroke-dasharray:none;stroke-dashoffset:0" />
      <path
         sodipodi:nodetypes="czc"
         inkscape:connector-curvature="0"
         id="path4193"
         d="m 126.62043,416.11795 c 0,0 -22.36301,153.5832 157.17533,258.60613 179.53835,105.02294 296.52214,14.05272 296.52214,14.05272"
         style="fill:none;fill-rule:evenodd;stroke:#000000;stroke-width:4.77224493;stroke-linecap:butt;stroke-linejoin:miter;stroke-miterlimit:4;stroke-dasharray:none;stroke-opacity:1" />
      <path
         inkscape:connector-curvature="0"
         id="path4213"
         d="M 223.43106,689.66306 C 176.77991,655.3202 139.8854,615.79073 117.47068,576.13509 c -10.0523,-17.7843 -15.80724,-31.88816 -20.478543,-50.18758 -7.927343,-31.05465 -5.537671,-57.26387 7.156553,-78.491 5.05378,-8.45087 16.73677,-22.90451 17.87184,-22.1102 0.37166,0.2601 0.90299,7.55894 1.18071,16.21967 2.07496,64.70842 34.44395,131.97112 87.88116,182.61683 21.28142,20.1697 36.19164,31.28357 66.46769,49.54406 52.31606,31.55354 95.50141,47.11108 147.59414,53.17084 45.61856,5.30666 99.35667,-4.22117 138.78604,-24.60691 l 10.1166,-5.23047 -2.46657,7.60151 c -1.35662,4.18084 -5.18691,12.05143 -8.51172,17.49021 -43.07945,70.4698 -181.97087,65.07436 -308.08146,-11.96786 -11.89668,-7.26779 -26.0969,-16.50231 -31.55606,-20.52113 z"
         style="opacity:1;fill:#999999;fill-opacity:1;fill-rule:nonzero;stroke:none;stroke-width:7.14285707;stroke-linecap:round;stroke-linejoin:round;stroke-miterlimit:4;stroke-dasharray:none;stroke-dashoffset:0" />
      <path
         sodipodi:nodetypes="csc"
         inkscape:connector-curvature="0"
         id="path4217"
         d="m 126.49675,418.27072 c 22.33924,120.32565 77.05151,205.96824 148.96969,242.16924 138.48802,69.70983 180.01249,67.77243 300.97581,28.23478"
         style="fill:none;fill-rule:evenodd;stroke:#000000;stroke-width:2.09978771;stroke-linecap:butt;stroke-linejoin:round;stroke-miterlimit:4;stroke-dasharray:2.09978776, 16.7983021;stroke-dashoffset:14.51999855;stroke-opacity:1" />
      <path
         inkscape:connector-curvature="0"
         id="path4155"
         d="m 574.50002,625.31294 c -1.45683,-13.05268 -8.84975,-36.4421 -16.44138,-52.01665 -12.19418,-25.01685 -31.54471,-52.37111 -52.31297,-73.95064 -2.38474,-2.47789 -4.24867,-4.65039 -4.14207,-4.82777 0.10659,-0.17738 2.69755,-0.16197 5.75768,0.0342 19.72196,1.26459 43.46678,-2.38481 60.43715,-9.28872 17.32961,-7.05005 31.7676,-18.1194 41.19386,-31.58259 l 3.75699,-5.366 -18.61177,90.81013 c -10.23648,49.94556 -18.7231,90.84046 -18.85916,90.87754 -0.13606,0.0371 -0.48631,-2.0732 -0.77833,-4.68955 z"
         style="opacity:1;fill:none;fill-opacity:1;fill-rule:nonzero;stroke:none;stroke-width:3;stroke-linecap:round;stroke-linejoin:round;stroke-miterlimit:4;stroke-dasharray:none;stroke-dashoffset:0" />
      <ellipse
         style="opacity:1;fill:#ffe680;fill-opacity:1;fill-rule:nonzero;stroke:#000000;stroke-width:5.46648979;stroke-linecap:round;stroke-linejoin:round;stroke-miterlimit:4;stroke-dasharray:none;stroke-dashoffset:0"
         id="ellipse4195"
         cx="448.27347"
         cy="37.349495"
         rx="34.659077"
         ry="57.531681"
         transform="matrix(0.73454491,0.67856008,-0.66618384,0.74578756,0,0)" />
      <ellipse
         transform="matrix(0.73454491,0.67856008,-0.66618384,0.74578756,0,0)"
         ry="46.313164"
         rx="27.90065"
         cy="36.83461"
         cx="447.74469"
         id="path4161"
         style="opacity:1;fill:#d5d5ff;fill-opacity:1;fill-rule:nonzero;stroke:#000000;stroke-width:4.40053892;stroke-linecap:round;stroke-linejoin:round;stroke-miterlimit:4;stroke-dasharray:none;stroke-dashoffset:0" />
      <ellipse
         transform="matrix(-0.94392758,-0.33015257,-0.34588862,0.93827558,0,0)"
         ry="57.531681"
         rx="34.659077"
         cy="277.19363"
         cx="-698.96808"
         id="ellipse4197"
         style="opacity:1;fill:#ffe680;fill-opacity:1;fill-rule:nonzero;stroke:#000000;stroke-width:5.46648979;stroke-linecap:round;stroke-linejoin:round;stroke-miterlimit:4;stroke-dasharray:none;stroke-dashoffset:0" />
      <ellipse
         style="opacity:1;fill:#d5d5ff;fill-opacity:1;fill-rule:nonzero;stroke:#000000;stroke-width:4.40053892;stroke-linecap:round;stroke-linejoin:round;stroke-miterlimit:4;stroke-dasharray:none;stroke-dashoffset:0"
         id="ellipse4163"
         cx="-699.14807"
         cy="274.10962"
         rx="27.90065"
         ry="46.313164"
         transform="matrix(-0.94392758,-0.33015257,-0.34588862,0.93827558,0,0)" />
      <ellipse
         style="opacity:1;fill:#ffe680;fill-opacity:1;fill-rule:nonzero;stroke:#000000;stroke-width:6.07727623;stroke-linecap:round;stroke-linejoin:round;stroke-miterlimit:4;stroke-dasharray:none;stroke-dashoffset:0"
         id="ellipse4199"
         cx="-582.96936"
         cy="160.86829"
         rx="38.467945"
         ry="64.065773"
         transform="matrix(-0.86443566,-0.50274346,-0.50378269,0.86383043,0,0)" />
      <ellipse
         transform="matrix(-0.88839379,-0.45908221,-0.46383803,0.88592002,0,0)"
         ry="51.565384"
         rx="30.971867"
         cy="186.25002"
         cx="-576.76782"
         id="ellipse4165"
         style="opacity:1;fill:#d5d5ff;fill-opacity:1;fill-rule:nonzero;stroke:#000000;stroke-width:4.89225721;stroke-linecap:round;stroke-linejoin:round;stroke-miterlimit:4;stroke-dasharray:none;stroke-dashoffset:0" />
      <ellipse
         transform="matrix(-0.86427701,-0.50301616,-0.50352734,0.86397929,0,0)"
         ry="75.455444"
         rx="46.324123"
         cy="161.63814"
         cx="-582.17212"
         id="ellipse4221"
         style="opacity:1;fill:none;fill-opacity:1;fill-rule:nonzero;stroke:#000000;stroke-width:2.22447252;stroke-linecap:butt;stroke-linejoin:round;stroke-miterlimit:4;stroke-dasharray:2.22447255, 8.8978902;stroke-dashoffset:0" />
      <ellipse
         style="opacity:1;fill:none;fill-opacity:1;fill-rule:nonzero;stroke:#000000;stroke-width:2.01948667;stroke-linecap:butt;stroke-linejoin:round;stroke-miterlimit:4;stroke-dasharray:2.01948676, 8.07794706;stroke-dashoffset:0"
         id="ellipse4227"
         cx="-675.37482"
         cy="352.07141"
         rx="41.491005"
         ry="69.433922"
         transform="matrix(-0.97428531,-0.22531787,-0.26970223,0.96294377,0,0)" />
      <ellipse
         transform="matrix(0.65622117,0.7545686,-0.7237229,0.69009069,0,0)"
         ry="69.433922"
         rx="41.491005"
         cy="-11.965628"
         cx="452.27008"
         id="ellipse4229"
         style="opacity:1;fill:none;fill-opacity:1;fill-rule:nonzero;stroke:#000000;stroke-width:2.01948667;stroke-linecap:butt;stroke-linejoin:round;stroke-miterlimit:4;stroke-dasharray:2.01948676, 8.07794707;stroke-dashoffset:0" />
      <rect
         style="opacity:1;fill:#ffe680;fill-opacity:1;fill-rule:nonzero;stroke:#000000;stroke-width:5.02108431;stroke-linecap:butt;stroke-linejoin:round;stroke-miterlimit:4;stroke-dasharray:none;stroke-dashoffset:14.51999855"
         id="rect4248"
         width="85.288605"
         height="180.21246"
         x="485.77399"
         y="111.28653"
         ry="32.765903"
         transform="matrix(0.76245515,0.64704107,-0.68630529,0.72731359,0,0)"
         inkscape:transform-center-x="-3.4041782"
         inkscape:transform-center-y="1.7279628" />
      <rect
         inkscape:transform-center-y="1.6707056"
         inkscape:transform-center-x="-2.7226725"
         transform="matrix(0.72884137,0.68468259,-0.68468259,0.72884137,0,0)"
         ry="29.972326"
         y="93.577156"
         x="492.90845"
         height="164.84779"
         width="69.486252"
         id="rect4231"
         style="opacity:1;fill:#b7b7c8;fill-opacity:1;fill-rule:nonzero;stroke:#000000;stroke-width:4.33461571;stroke-linecap:butt;stroke-linejoin:round;stroke-miterlimit:4;stroke-dasharray:none;stroke-dashoffset:14.51999855" />
      <rect
         inkscape:transform-center-y="2.037001"
         inkscape:transform-center-x="-3.9498018"
         transform="matrix(0.75116445,0.66011511,-0.71249622,0.70167595,0,0)"
         ry="36.881741"
         y="92.486359"
         x="485.46378"
         height="202.84956"
         width="100.14108"
         id="rect4250"
         style="opacity:1;fill:none;fill-opacity:1;fill-rule:nonzero;stroke:#000000;stroke-width:1.99465382;stroke-linecap:butt;stroke-linejoin:round;stroke-miterlimit:4;stroke-dasharray:1.99465387, 11.96792323;stroke-dashoffset:0" />
      <ellipse
         inkscape:transform-center-y="3.5355339"
         inkscape:transform-center-x="-0.50507627"
         transform="matrix(0.7226255,0.69123974,-0.69123974,0.7226255,0,0)"
         ry="9.5444899"
         rx="2.3861225"
         cy="173.59708"
         cx="504.28665"
         id="path4287"
         style="opacity:1;fill:#666666;fill-opacity:1;fill-rule:nonzero;stroke:none;stroke-width:2;stroke-linecap:butt;stroke-linejoin:round;stroke-miterlimit:4;stroke-dasharray:2, 12;stroke-dashoffset:0" />
      <path
         sodipodi:nodetypes="cscccccscccc"
         inkscape:transform-center-y="1.3166249"
         inkscape:transform-center-x="10.24351"
         inkscape:connector-curvature="0"
         d="m 561.14022,679.12564 c -7.89526,2.00714 -15.77576,4.14557 -24.02506,5.64207 -5.74211,1.04169 -9.35727,1.43242 -15.25474,2.19779 -11.4765,1.21911 -23.00734,2.09628 -34.53126,2.84746 l -19.05459,-2.69965 0,0 c 11.69698,-0.6054 23.40806,-1.41845 35.06319,-2.62354 6.02006,-0.76918 8.97682,-1.06986 14.81135,-2.10343 8.21476,-1.45523 16.07891,-3.51438 23.90456,-5.53953 8.10477,-2.16378 36.98967,-11.88895 44.79789,-14.37427 l -3.28719,9.99112 c -1.5914,0.47648 -14.66333,4.62253 -22.42415,6.66198 z"
         id="path4186"
         style="opacity:1;fill:#ff6600;fill-opacity:1;fill-rule:nonzero;stroke:none;stroke-width:8;stroke-linecap:butt;stroke-linejoin:round;stroke-miterlimit:4;stroke-dasharray:none;stroke-dashoffset:0" />
      <path
         sodipodi:nodetypes="cccccccscsscc"
         inkscape:connector-curvature="0"
         d="m 591.46964,647.51453 c -7.67926,1.53476 -10.62267,3.22414 -18.18632,5.11873 -12.40426,2.90855 -24.82171,5.79237 -37.40552,8.09453 -11.4138,1.56999 -22.97757,2.15977 -34.52811,2.29803 l -13.23209,-3.96994 0,0 c 11.66712,0.0841 23.35413,-0.41787 34.89464,-1.93932 5.76761,-0.99491 7.07664,-1.16713 12.87389,-2.39087 8.11635,-1.7133 16.11161,-3.8044 24.16689,-5.70607 4.48446,-1.12209 8.94473,-2.30958 13.42412,-3.4433 1.25412,-0.31741 5.04458,-1.16909 6.47359,-1.55076 0.71496,-0.19096 12.89512,-3.91403 13.60192,-4.1256 z"
         id="path4188"
         style="opacity:1;fill:#ff6600;fill-opacity:1;fill-rule:nonzero;stroke:none;stroke-width:8;stroke-linecap:butt;stroke-linejoin:round;stroke-miterlimit:4;stroke-dasharray:none;stroke-dashoffset:0" />
      <path
         sodipodi:nodetypes="cccccccccc"
         inkscape:connector-curvature="0"
         d="m 599.75798,616.77209 c -11.33572,4.81059 -16.91442,8.09588 -28.64026,11.8367 -16.46929,5.62562 -33.93278,6.94402 -51.15268,8.43987 l -7.07202,0.53423 -13.2118,-1.99806 0,0 7.35172,-0.47479 c 17.14212,-1.35758 34.50407,-2.63853 50.90975,-8.17432 11.32327,-3.58395 33.32666,-15.54754 44.04462,-20.7118 z"
         id="path4190"
         style="opacity:1;fill:#ff6600;fill-opacity:1;fill-rule:nonzero;stroke:none;stroke-width:8;stroke-linecap:butt;stroke-linejoin:round;stroke-miterlimit:4;stroke-dasharray:none;stroke-dashoffset:0" />
      <path
         inkscape:connector-curvature="0"
         d="m 323.98783,318.72448 c -4.35796,1.78438 -8.80929,3.33429 -13.17451,5.0995 -3.85267,1.55794 -4.71598,2.01147 -8.46393,3.74337 -1.79049,0.85326 -4.71989,2.30164 -6.6708,3.05771 -0.46472,0.1801 -1.26661,0.88562 -1.43593,0.41686 -0.30626,-0.84789 0.53937,-1.7322 0.63713,-2.62839 0.34587,-3.17051 -0.90896,-1.85848 0.70776,-3.11223 3.34725,-0.66815 6.72422,-1.21324 10.13154,-1.45624 0.90804,-0.0648 2.61323,-0.15558 3.64291,0.002 0.18013,0.0275 0.33956,0.13238 0.50934,0.19857 0.73415,1.82109 1.58145,3.60056 2.20245,5.46327 0.0241,0.0724 -0.4581,0.19668 -0.53348,0.22737 -0.43235,0.17603 -0.63925,0.68057 -0.96695,1.01303 -0.89557,0.90858 -1.81519,1.79314 -2.72278,2.68971 -5.14285,4.42728 -10.9749,7.9491 -17.04351,10.94889 -1.83755,0.90833 -5.86622,2.75604 -8.2233,3.28597 -0.38399,0.0863 -0.78578,-0.0463 -1.17866,-0.0694 -2.95121,-5.56385 -4.39678,-4.10444 -1.86418,-5.87373 0.41944,-0.2459 3.89705,5.68575 3.47762,5.93165 l 0,0 c -4.37813,0.8862 -1.79278,1.06666 -6.24602,-4.62999 0.22074,-0.48346 0.32435,-1.04014 0.66222,-1.45039 1.63637,-1.98689 4.83321,-4.10358 6.79916,-5.34326 5.71508,-3.60381 11.80879,-6.57466 18.13021,-8.95105 2.34136,-0.84732 3.06814,-0.92815 4.85745,-1.995 0.96008,-0.57244 0.85337,-0.75457 1.8587,-1.05375 0.19902,-0.0592 0.51141,-0.25172 0.61854,-0.0738 1.02733,1.7057 1.721,3.5913 2.5815,5.38695 -0.11081,0.12067 -0.1926,0.27665 -0.33244,0.362 -0.87104,0.53161 -2.40308,0.98837 -3.26797,1.21775 -3.46038,0.91773 -7.01975,1.38867 -10.59094,1.57488 -3.14444,-0.0417 -7.10728,0.89035 -9.12231,-2.7383 -0.60585,-1.091 -0.0689,-2.53693 0.28815,-3.7327 0.20888,-0.6996 0.80624,-1.23539 1.34298,-1.73036 1.72373,-1.58959 4.54281,-3.07968 6.46732,-4.21617 1.4702,-0.73357 2.91705,-1.51594 4.4106,-2.20071 5.59041,-2.5631 11.51915,-4.62884 17.66147,-5.31311 0.87662,-0.0977 1.76279,-0.0674 2.64418,-0.1011 0.42782,-0.15602 2.6343,5.89432 2.20648,6.05034 z"
         id="path4212"
         style="opacity:1;fill:#ffffff;fill-opacity:1;fill-rule:nonzero;stroke:none;stroke-width:8;stroke-linecap:butt;stroke-linejoin:round;stroke-miterlimit:4;stroke-dasharray:none;stroke-dashoffset:0" />
      <path
         inkscape:connector-curvature="0"
         d="m 453.85029,412.99604 c -9.44312,4.74029 -19.48142,8.19729 -29.45995,11.61778 -1.72799,0.55198 -3.45316,1.11289 -5.18398,1.65595 -1.19818,0.37594 -2.39275,0.76542 -3.60287,1.10099 -0.6409,0.17772 -1.33007,0.68729 -1.94662,0.43787 -0.35264,-0.14265 0.38188,-0.71812 0.32433,-1.09415 -0.95578,-6.24488 0.32139,-5.3047 -3.53809,-6.06939 2.66147,-0.5003 5.33082,-0.944 7.97858,-1.51395 5.48475,-1.79695 11.18173,-2.8463 16.94378,-3.09637 5.6034,0.25329 7.7125,-0.3075 7.05124,7.50865 -0.0942,1.11364 -1.26811,1.84842 -2.01508,2.67975 -1.58991,1.76948 -3.60823,3.22087 -5.46074,4.67977 -2.75149,2.10974 -5.60054,4.09723 -8.50369,5.99275 -0.0509,0.0332 -2.60387,1.68015 -3.08122,1.81269 -0.10136,0.0281 -0.11359,-0.17712 -0.17038,-0.26567 -2.43348,-10.06442 0.99877,-3.68845 -4.59856,-6.15324 -0.36928,-0.16261 0.72211,-0.36171 1.09455,-0.51695 1.84655,-0.76968 3.72567,-1.23809 5.67351,-1.66751 2.52358,-0.43032 5.0727,-0.3685 7.62176,-0.2212 0.46385,0.0268 0.91981,0.13215 1.38012,0.19527 1.59661,0.21895 0.943,0.14965 2.56007,0.24046 1.13283,0.0254 4.64205,-0.004 5.3026,1.12119 0.86608,1.47484 2.10615,3.068 1.90076,4.76597 -0.21926,1.81271 -2.01953,3.04262 -3.0293,4.56393 -1.36084,1.10203 -2.67085,2.26997 -4.08252,3.30608 -6.77903,4.97554 -14.33365,9.24479 -22.30755,11.98083 -0.96683,0.33174 -1.97318,0.53462 -2.95977,0.80193 -4.40411,0.20939 -1.24962,0.49437 -6.54842,-6.88522 0.4243,-0.41951 6.357,5.58092 5.93271,6.00042 l 0,0 c -6.01832,-6.55283 -7.08183,-3.76209 -5.47497,-7.09212 0.69023,-0.59953 1.34141,-1.24724 2.0707,-1.7986 3.08098,-2.32935 5.86555,-3.98489 9.30817,-5.86276 5.54186,-3.02296 11.26957,-5.77728 17.28473,-7.72738 2.30172,2.46736 1.32539,1.17174 3.51636,5.27621 0.0444,0.0833 0.15357,0.24429 0.0646,0.27567 -0.79467,0.28016 -3.1263,-0.20474 -3.96292,-0.23957 -0.84827,-0.12688 -1.56325,-0.25743 -2.41125,-0.30477 -0.31442,-0.0176 -1.25818,-0.0387 -0.94471,-0.009 0.4254,0.0408 1.23934,-0.38436 1.28139,0.0409 0.0935,0.94589 -3.19067,-0.95278 -2.84116,0.24296 -1.58471,0.19825 -1.76749,0.19261 -3.33079,0.50136 -1.90424,0.37607 -6.534,1.84734 -7.85291,0.70127 -1.56609,-1.36086 -1.30195,-3.93996 -1.95292,-5.90994 0.19389,-0.42375 0.34197,-0.87161 0.58167,-1.27123 0.60698,-1.01193 1.9163,-2.38593 2.69216,-3.09774 2.57813,-2.36529 5.52848,-4.30302 8.35171,-6.34982 0.77207,-0.50965 4.63168,-3.10569 5.61181,-3.57676 0.5005,-0.24056 1.24925,-0.84628 1.61084,-0.42483 1.19941,1.39794 1.05254,3.6814 2.32548,5.01274 0.97905,1.02397 4.80716,-0.0573 1.62582,0.70758 -5.45284,1.14551 -10.95494,1.99544 -16.49792,2.56989 -0.67248,0.12563 -1.33899,0.28907 -2.01744,0.37691 -0.50017,0.0648 -1.00729,0.0533 -1.51094,0.0799 -0.36818,0.0445 -0.73743,0.081 -1.10455,0.13352 -1.89348,0.271 -0.5562,0.10889 -2.5599,0.50373 -0.50424,0.0994 -1.01321,0.17295 -1.51982,0.25943 -1.49302,-0.056 -3.34124,0.80026 -4.47908,-0.16804 -1.65715,-1.41024 -2.29012,-3.80598 -2.70157,-5.94272 -0.16431,-0.85331 0.60558,-1.64943 1.10233,-2.36243 0.49981,-0.7174 1.15755,-1.32379 1.84357,-1.86587 2.94536,-2.32734 5.01541,-3.1141 8.48023,-4.8649 2.09598,-0.85313 4.16579,-1.77362 6.28795,-2.55937 8.61744,-3.1907 17.6517,-5.76347 26.86479,-6.26157 0.56769,-0.21096 3.551,7.81736 2.98331,8.02831 z"
         id="path4216"
         style="opacity:1;fill:#ffffff;fill-opacity:1;fill-rule:nonzero;stroke:none;stroke-width:8;stroke-linecap:butt;stroke-linejoin:round;stroke-miterlimit:4;stroke-dasharray:none;stroke-dashoffset:0" />
      <path
         inkscape:connector-curvature="0"
         d="m 583.22935,468.97678 c -0.35575,0.37449 -0.69661,0.76372 -1.06724,1.12348 -0.8589,0.8337 -2.67901,2.42772 -3.54178,3.21691 -2.36143,2.16002 -4.69222,4.34097 -7.09966,6.45049 -0.6867,0.55911 -1.35721,1.13871 -2.0601,1.67732 -0.89919,0.68903 -1.84067,1.34653 -2.86513,1.84046 -0.21801,0.10511 -0.51426,0.4072 -0.6863,0.23697 -6.26491,-6.19888 -7.58388,-4.68769 -4.48586,-7.04532 0.71165,-0.34782 1.38964,-0.77527 2.13496,-1.04346 0.9395,-0.33806 3.87815,-0.81054 4.74842,-0.9419 3.10772,-0.46909 6.1796,-0.68226 9.31764,-0.78357 1.73344,0.0176 8.55922,0.39599 9.37282,1.91461 2.21845,4.14083 0.66758,5.15702 -1.22905,6.9507 -2.47546,2.48591 -4.95348,4.96677 -7.44249,7.43908 -1.0862,1.0789 -2.12086,2.21002 -3.23145,3.2638 -1.14512,1.08654 -2.35498,2.10273 -3.53246,3.1541 -2.56617,2.04281 -3.43918,2.90062 -6.09187,4.48869 -0.41454,0.24817 -1.18702,1.0832 -1.31182,0.61645 -0.39997,-1.49591 0.87739,-3.2299 0.23619,-4.63937 -1.56466,-3.43933 -5.84021,-1.35548 -1.41293,-2.91113 1.99019,-0.62061 2.97784,-0.99212 5.0041,-1.38389 0.60379,-0.11674 1.21627,-0.29539 1.82895,-0.24227 1.64164,0.14233 4.07432,-0.61713 4.87433,0.82343 3.00906,5.41837 0.0181,7.30258 -2.70556,10.05632 -3.57102,3.24901 -7.54016,6.01647 -11.65644,8.52408 -1.99298,1.21412 -4.09908,2.49011 -6.3338,3.2233 0.33718,-2.62487 0.14922,-0.41754 -2.02939,-6.32853 0.55982,0.18725 -2.08835,8.1044 -2.64817,7.91715 l 0,0 c -3.11746,-6.26452 -3.66769,-3.78051 -2.28906,-7.28132 0.32818,-0.50235 0.60531,-1.04203 0.98452,-1.50707 1.19942,-1.47088 3.13134,-3.12594 4.54709,-4.24257 3.8056,-3.00155 7.90436,-5.62854 12.25767,-7.76341 6.24436,-2.72481 -0.42576,-0.95818 5.12394,4.26903 1.01823,0.95907 2.88235,-0.0503 4.16576,0.50605 0.48512,0.21029 -0.94392,0.47957 -1.43397,0.67813 -2.39608,0.97087 -2.78779,0.97832 -5.43226,1.68232 -3.25535,0.52968 -7.0426,1.59932 -9.96242,-1.37258 -4.29396,-4.37054 3.29838,-10.34588 5.72227,-12.51722 6.3292,-5.49575 0.64691,-0.64385 7.14196,-5.9547 1.02423,-0.83749 1.99936,-1.73506 3.04169,-2.5499 2.14605,-1.67767 4.44111,-3.14522 6.79218,-4.51425 2.79064,-0.35014 -2.33881,0.077 1.12052,5.34308 0.74179,1.12922 2.63342,0.65959 3.87101,1.20159 0.20671,0.0905 -0.42365,0.15863 -0.64287,0.21215 -1.3478,0.32904 -2.22571,0.40834 -3.67319,0.61535 -3.1168,0.28865 -6.21464,0.5078 -9.3481,0.48362 -0.0247,-1.9e-4 -3.57791,-0.0769 -4.04067,-0.22242 -0.22023,-0.0693 -0.32054,-0.33232 -0.48082,-0.49849 -2.89968,-0.96188 -0.26258,-0.054 -6.53087,-5.72106 -0.3099,-0.28017 0.0756,-0.47133 0.33292,-0.80913 1.19622,-1.57018 1.55268,-1.87191 3.02769,-3.48281 0.80381,-0.76217 1.58496,-1.54897 2.41142,-2.28652 1.95785,-1.74723 3.18071,-2.64905 5.22985,-4.23649 0.78908,-0.6113 1.54436,-1.26926 2.36922,-1.83134 1.18211,-0.80551 2.34714,-1.33572 3.60947,-1.95587 0.43543,-0.42421 6.43457,5.73373 5.99914,6.15793 z"
         id="path4218"
         style="opacity:1;fill:#ffffff;fill-opacity:1;fill-rule:nonzero;stroke:none;stroke-width:8;stroke-linecap:butt;stroke-linejoin:round;stroke-miterlimit:4;stroke-dasharray:none;stroke-dashoffset:0" />
    </g>
  </g>
</svg>
