<svg width="208" height="111" viewBox="0 0 208 111" fill="none" xmlns="http://www.w3.org/2000/svg">
<path d="M17.064 57.648C14.952 56.928 13.032 56.208 11.304 55.488C9.576 54.72 8.088 53.808 6.84 52.752C5.592 51.696 4.608 50.448 3.888 49.008C3.216 47.52 2.88 45.72 2.88 43.608C2.88 39.528 4.44 36.264 7.56 33.816C10.728 31.368 15.144 30.144 20.808 30.144C22.872 30.144 24.792 30.288 26.568 30.576C28.344 30.864 29.856 31.32 31.104 31.944C32.4 32.52 33.408 33.288 34.128 34.248C34.848 35.16 35.208 36.24 35.208 37.488C35.208 38.736 34.92 39.816 34.344 40.728C33.768 41.592 33.072 42.336 32.256 42.96C31.2 42.288 29.784 41.712 28.008 41.232C26.232 40.704 24.288 40.44 22.176 40.44C20.016 40.44 18.432 40.752 17.424 41.376C16.416 41.952 15.912 42.696 15.912 43.608C15.912 44.328 16.224 44.928 16.848 45.408C17.472 45.84 18.408 46.248 19.656 46.632L23.472 47.856C27.984 49.296 31.44 51.144 33.84 53.4C36.288 55.608 37.512 58.632 37.512 62.472C37.512 66.552 35.904 69.864 32.688 72.408C29.472 74.904 24.744 76.152 18.504 76.152C16.296 76.152 14.232 75.96 12.312 75.576C10.44 75.24 8.784 74.736 7.344 74.064C5.952 73.344 4.848 72.48 4.032 71.472C3.264 70.416 2.88 69.216 2.88 67.872C2.88 66.48 3.288 65.304 4.104 64.344C4.92 63.336 5.808 62.568 6.768 62.04C8.112 63.096 9.744 64.008 11.664 64.776C13.632 65.544 15.768 65.928 18.072 65.928C20.424 65.928 22.08 65.568 23.04 64.848C24 64.128 24.48 63.288 24.48 62.328C24.48 61.368 24.096 60.648 23.328 60.168C22.56 59.64 21.48 59.136 20.088 58.656L17.064 57.648ZM60.6803 51.6C62.6963 51.6 64.2323 51.144 65.2883 50.232C66.3923 49.272 66.9443 47.832 66.9443 45.912C66.9443 44.088 66.3683 42.696 65.2163 41.736C64.1123 40.728 62.4803 40.224 60.3203 40.224C59.5523 40.224 58.9043 40.248 58.3763 40.296C57.8963 40.296 57.3923 40.344 56.8643 40.44V51.6H60.6803ZM56.9363 74.712C56.4083 74.856 55.5683 75 54.4163 75.144C53.3123 75.288 52.2083 75.36 51.1043 75.36C50.0003 75.36 49.0163 75.264 48.1523 75.072C47.3363 74.928 46.6403 74.64 46.0643 74.208C45.4883 73.776 45.0563 73.176 44.7683 72.408C44.4803 71.64 44.3363 70.632 44.3363 69.384V35.472C44.3363 34.464 44.6003 33.696 45.1283 33.168C45.7043 32.592 46.4723 32.136 47.4323 31.8C49.0643 31.224 50.9123 30.816 52.9763 30.576C55.0883 30.288 57.2003 30.144 59.3123 30.144C65.9363 30.144 71.0003 31.56 74.5043 34.392C78.0083 37.224 79.7603 41.064 79.7603 45.912C79.7603 48.264 79.3763 50.4 78.6083 52.32C77.8883 54.192 76.7843 55.824 75.2963 57.216C73.8563 58.56 72.0083 59.616 69.7523 60.384C67.5443 61.104 64.9763 61.464 62.0483 61.464H56.9363V74.712ZM93.2805 32.664C94.0965 32.184 95.3205 31.728 96.9525 31.296C98.6325 30.864 100.313 30.648 101.993 30.648C104.393 30.648 106.505 31.008 108.329 31.728C110.201 32.4 111.401 33.48 111.929 34.968C112.793 37.464 113.729 40.368 114.737 43.68C115.745 46.992 116.753 50.424 117.761 53.976C118.769 57.48 119.753 60.96 120.713 64.416C121.673 67.824 122.513 70.848 123.233 73.488C122.657 74.16 121.793 74.688 120.641 75.072C119.489 75.504 118.121 75.72 116.537 75.72C115.385 75.72 114.401 75.624 113.585 75.432C112.817 75.24 112.169 74.952 111.641 74.568C111.161 74.184 110.753 73.68 110.417 73.056C110.129 72.432 109.865 71.712 109.625 70.896L108.329 65.928H95.2965C94.9125 67.368 94.5285 68.856 94.1445 70.392C93.7605 71.928 93.3765 73.416 92.9925 74.856C92.3205 75.096 91.6005 75.288 90.8325 75.432C90.1125 75.624 89.2245 75.72 88.1685 75.72C85.7205 75.72 83.8965 75.312 82.6965 74.496C81.5445 73.632 80.9685 72.456 80.9685 70.968C80.9685 70.296 81.0645 69.624 81.2565 68.952C81.4485 68.28 81.6645 67.488 81.9045 66.576C82.2405 65.28 82.6965 63.672 83.2725 61.752C83.8965 59.832 84.5685 57.768 85.2885 55.56C86.0085 53.304 86.7765 51 87.5925 48.648C88.4085 46.296 89.1765 44.088 89.8965 42.024C90.6165 39.912 91.2645 38.04 91.8405 36.408C92.4645 34.776 92.9445 33.528 93.2805 32.664ZM101.921 41.952C101.249 43.968 100.481 46.224 99.6165 48.72C98.8005 51.168 98.0565 53.664 97.3845 56.208H106.313C105.641 53.616 104.945 51.096 104.225 48.648C103.553 46.152 102.929 43.92 102.353 41.952H101.921ZM150.678 40.152C146.982 40.152 144.15 41.28 142.182 43.536C140.214 45.792 139.23 48.984 139.23 53.112C139.23 57.288 140.31 60.504 142.47 62.76C144.678 65.016 147.63 66.144 151.326 66.144C153.294 66.144 154.95 65.88 156.294 65.352C157.686 64.824 159.006 64.224 160.254 63.552C161.07 64.224 161.694 65.04 162.126 66C162.606 66.912 162.846 67.992 162.846 69.24C162.846 71.208 161.742 72.888 159.534 74.28C157.374 75.624 154.062 76.296 149.598 76.296C146.382 76.296 143.358 75.84 140.526 74.928C137.694 74.016 135.222 72.624 133.11 70.752C130.998 68.832 129.318 66.432 128.07 63.552C126.87 60.624 126.27 57.144 126.27 53.112C126.27 49.368 126.846 46.08 127.998 43.248C129.198 40.368 130.806 37.944 132.822 35.976C134.886 34.008 137.286 32.52 140.022 31.512C142.758 30.504 145.686 30 148.806 30C153.222 30 156.63 30.72 159.03 32.16C161.478 33.6 162.702 35.448 162.702 37.704C162.702 38.952 162.39 40.032 161.766 40.944C161.142 41.856 160.422 42.576 159.606 43.104C158.358 42.288 157.014 41.592 155.574 41.016C154.182 40.44 152.55 40.152 150.678 40.152ZM169.563 38.064C169.563 36 170.163 34.368 171.363 33.168C172.563 31.968 174.195 31.368 176.259 31.368H200.019C200.355 31.896 200.643 32.592 200.883 33.456C201.171 34.32 201.315 35.232 201.315 36.192C201.315 38.016 200.907 39.312 200.091 40.08C199.323 40.848 198.291 41.232 196.995 41.232H181.803V47.928H198.003C198.339 48.456 198.627 49.152 198.867 50.016C199.155 50.832 199.299 51.72 199.299 52.68C199.299 54.504 198.915 55.8 198.147 56.568C197.379 57.336 196.347 57.72 195.051 57.72H181.803V65.28H200.307C200.643 65.808 200.931 66.504 201.171 67.368C201.459 68.232 201.603 69.144 201.603 70.104C201.603 71.928 201.195 73.248 200.379 74.064C199.611 74.832 198.579 75.216 197.283 75.216H176.259C174.195 75.216 172.563 74.616 171.363 73.416C170.163 72.216 169.563 70.584 169.563 68.52V38.064Z" fill="url(#paint0_linear)"/>
<path d="M14.318 100.712C14.318 100.952 13.724 101.072 12.536 101.072C11.348 101.072 10.754 100.952 10.754 100.712V91.676H8.594C8.39 91.676 8.246 91.4 8.162 90.848C8.126 90.584 8.108 90.314 8.108 90.038C8.108 89.762 8.126 89.492 8.162 89.228C8.246 88.676 8.39 88.4 8.594 88.4H16.424C16.628 88.4 16.772 88.676 16.856 89.228C16.892 89.492 16.91 89.762 16.91 90.038C16.91 90.314 16.892 90.584 16.856 90.848C16.772 91.4 16.628 91.676 16.424 91.676H14.318V100.712ZM27.7272 100.694C27.7272 100.898 27.1212 101 25.9092 101C24.6972 101 24.0912 100.898 24.0912 100.694V96.554H21.5712V100.694C21.5712 100.898 20.9652 101 19.7532 101C18.5412 101 17.9352 100.898 17.9352 100.694V88.76C17.9352 88.508 18.5412 88.382 19.7532 88.382C20.9652 88.382 21.5712 88.508 21.5712 88.76V92.99H24.0912V88.796C24.0912 88.628 24.3912 88.508 24.9912 88.436C25.3032 88.412 25.6092 88.4 25.9092 88.4L26.8272 88.436C27.4272 88.508 27.7272 88.628 27.7272 88.796V100.694ZM35.3691 93.404C35.5971 93.404 35.7111 93.824 35.7111 94.664C35.7111 94.916 35.6811 95.216 35.6211 95.564C35.5731 95.9 35.4771 96.068 35.3331 96.068H33.0471V97.868H36.3591C36.5631 97.868 36.7011 98.132 36.7731 98.66C36.8091 98.888 36.8271 99.134 36.8271 99.398C36.8271 99.65 36.7911 99.98 36.7191 100.388C36.6471 100.796 36.5271 101 36.3591 101H30.2031C29.7471 101 29.5191 100.814 29.5191 100.442V88.868C29.5191 88.556 29.6571 88.4 29.9331 88.4H36.3771C36.6291 88.4 36.7551 88.934 36.7551 90.002C36.7551 91.058 36.6291 91.586 36.3771 91.586H33.0471V93.404H35.3691ZM47.1347 101.18C45.4547 101.18 44.0807 100.628 43.0127 99.524C41.9567 98.42 41.4287 96.812 41.4287 94.7C41.4287 92.576 41.9627 90.968 43.0307 89.876C44.1107 88.784 45.4967 88.238 47.1887 88.238C48.8927 88.238 50.2667 88.778 51.3107 89.858C52.3547 90.926 52.8767 92.552 52.8767 94.736C52.8767 96.908 52.3427 98.528 51.2747 99.596C50.2067 100.652 48.8267 101.18 47.1347 101.18ZM47.1527 91.694C46.5767 91.694 46.0907 91.958 45.6947 92.486C45.3107 93.014 45.1187 93.758 45.1187 94.718C45.1187 95.666 45.3047 96.398 45.6767 96.914C46.0487 97.418 46.5347 97.67 47.1347 97.67C47.7467 97.67 48.2387 97.412 48.6107 96.896C48.9947 96.38 49.1867 95.642 49.1867 94.682C49.1867 93.722 48.9887 92.984 48.5927 92.468C48.2087 91.952 47.7287 91.694 47.1527 91.694ZM57.7599 100.748C57.7599 100.94 57.1899 101.036 56.0499 101.036C54.8979 101.036 54.3219 100.946 54.3219 100.766V89.03C54.3219 88.61 54.5439 88.4 54.9879 88.4H58.4259C61.5819 88.4 63.1599 89.63 63.1599 92.09C63.1599 92.834 63.0159 93.512 62.7279 94.124C62.4399 94.724 62.0319 95.204 61.5039 95.564L63.7719 99.344C63.6759 99.632 63.3639 99.962 62.8359 100.334C62.1159 100.85 61.5219 101.108 61.0539 101.108C60.5859 101.108 60.2379 100.94 60.0099 100.604L58.3179 96.662H57.7599V100.748ZM57.7599 91.586V94.286H57.8499C58.9899 94.286 59.5599 93.812 59.5599 92.864C59.5599 92.432 59.4459 92.114 59.2179 91.91C59.0019 91.694 58.6419 91.586 58.1379 91.586H57.7599ZM66.1271 97.904V91.496H64.8491C64.6451 91.496 64.5011 91.238 64.4171 90.722C64.3811 90.47 64.3631 90.212 64.3631 89.948C64.3631 89.684 64.3811 89.426 64.4171 89.174C64.5011 88.658 64.6451 88.4 64.8491 88.4H70.8971C71.1011 88.4 71.2391 88.658 71.3111 89.174C71.3591 89.426 71.3831 89.684 71.3831 89.948C71.3831 90.212 71.3591 90.47 71.3111 90.722C71.2391 91.238 71.1011 91.496 70.8971 91.496H69.6911V97.904H70.9511C71.1551 97.904 71.2991 98.162 71.3831 98.678C71.4311 98.93 71.4551 99.188 71.4551 99.452C71.4551 99.716 71.4311 99.974 71.3831 100.226C71.2991 100.742 71.1551 101 70.9511 101H64.8851C64.6811 101 64.5431 100.742 64.4711 100.226C64.4231 99.974 64.3991 99.716 64.3991 99.452C64.3991 99.188 64.4231 98.93 64.4711 98.678C64.5431 98.162 64.6811 97.904 64.8851 97.904H66.1271ZM79.3159 97.238L79.3519 94.79C79.3519 94.622 79.5259 94.514 79.8739 94.466C80.2219 94.406 80.5099 94.376 80.7379 94.376L81.4399 94.43C81.8959 94.502 82.1239 94.628 82.1239 94.808L82.0519 100.442C81.8119 100.61 81.3259 100.778 80.5939 100.946C79.8739 101.102 79.0459 101.18 78.1099 101.18C76.3699 101.18 74.9659 100.616 73.8979 99.488C72.8299 98.36 72.2959 96.704 72.2959 94.52C72.2959 92.66 72.8179 91.148 73.8619 89.984C74.9059 88.82 76.3519 88.238 78.1999 88.238C79.0399 88.238 79.7959 88.322 80.4679 88.49C81.1519 88.646 81.6199 88.862 81.8719 89.138C81.8839 89.234 81.8899 89.414 81.8899 89.678C81.8899 89.942 81.7999 90.32 81.6199 90.812C81.4399 91.292 81.2359 91.652 81.0079 91.892C80.7799 92.132 80.6119 92.252 80.5039 92.252C80.4079 92.252 80.2999 92.21 80.1799 92.126C80.0719 92.03 79.8499 91.934 79.5139 91.838C79.1779 91.73 78.8539 91.676 78.5419 91.676C77.7979 91.676 77.1919 91.916 76.7239 92.396C76.2679 92.876 76.0399 93.62 76.0399 94.628C76.0399 95.636 76.2739 96.404 76.7419 96.932C77.2219 97.448 77.7679 97.706 78.3799 97.706C79.0039 97.706 79.3159 97.55 79.3159 97.238ZM85.0235 97.904V91.496H83.7455C83.5415 91.496 83.3975 91.238 83.3135 90.722C83.2775 90.47 83.2595 90.212 83.2595 89.948C83.2595 89.684 83.2775 89.426 83.3135 89.174C83.3975 88.658 83.5415 88.4 83.7455 88.4H89.7935C89.9975 88.4 90.1355 88.658 90.2075 89.174C90.2555 89.426 90.2795 89.684 90.2795 89.948C90.2795 90.212 90.2555 90.47 90.2075 90.722C90.1355 91.238 89.9975 91.496 89.7935 91.496H88.5875V97.904H89.8475C90.0515 97.904 90.1955 98.162 90.2795 98.678C90.3275 98.93 90.3515 99.188 90.3515 99.452C90.3515 99.716 90.3275 99.974 90.2795 100.226C90.1955 100.742 90.0515 101 89.8475 101H83.7815C83.5775 101 83.4395 100.742 83.3675 100.226C83.3195 99.974 83.2955 99.716 83.2955 99.452C83.2955 99.188 83.3195 98.93 83.3675 98.678C83.4395 98.162 83.5775 97.904 83.7815 97.904H85.0235ZM101.416 100.604C101.416 100.856 100.852 100.982 99.7243 100.982C98.5963 100.982 97.9843 100.892 97.8883 100.712L94.8823 95.096V100.694C94.8823 100.91 94.3243 101.018 93.2083 101.018C92.1043 101.018 91.5523 100.91 91.5523 100.694V88.652C91.5523 88.472 92.0263 88.382 92.9743 88.382C93.3463 88.382 93.7783 88.418 94.2703 88.49C94.7743 88.55 95.0803 88.67 95.1883 88.85L98.0683 94.394V88.742C98.0683 88.514 98.6263 88.4 99.7423 88.4C100.858 88.4 101.416 88.514 101.416 88.742V100.604ZM111.684 101.036C110.64 101.036 110.076 100.868 109.992 100.532L109.398 98.21H106.536L106.014 100.442C105.942 100.814 105.366 101 104.286 101C103.71 101 103.284 100.97 103.008 100.91C102.732 100.838 102.594 100.784 102.594 100.748L105.78 88.562C105.78 88.466 106.602 88.418 108.246 88.418C109.89 88.418 110.712 88.466 110.712 88.562L113.826 100.766C113.826 100.85 113.55 100.916 112.998 100.964C112.446 101.012 112.008 101.036 111.684 101.036ZM106.986 95.924H108.876L108.066 92.198H107.958L106.986 95.924ZM114.839 99.938V88.742C114.839 88.49 115.445 88.364 116.657 88.364C117.881 88.364 118.493 88.49 118.493 88.742V97.562H121.265C121.481 97.562 121.631 97.844 121.715 98.408C121.751 98.684 121.769 98.966 121.769 99.254C121.769 99.542 121.751 99.836 121.715 100.136C121.619 100.712 121.463 101 121.247 101H115.703C115.439 101 115.229 100.892 115.073 100.676C114.917 100.46 114.839 100.214 114.839 99.938ZM138.834 101.018C137.766 101.018 137.232 100.898 137.232 100.658L136.854 93.44L134.658 100.748C134.61 100.892 134.202 100.964 133.434 100.964C132.666 100.964 132.27 100.898 132.246 100.766L129.978 93.368L129.726 100.55C129.714 100.73 129.486 100.856 129.042 100.928C128.598 100.988 128.226 101.018 127.926 101.018C127.638 101.018 127.356 101 127.08 100.964C126.504 100.88 126.222 100.73 126.234 100.514L126.648 88.814C126.648 88.526 127.38 88.382 128.844 88.382C129.276 88.382 129.804 88.418 130.428 88.49C131.052 88.55 131.4 88.676 131.472 88.868L133.488 94.538L135.252 88.85C135.36 88.538 136.188 88.382 137.736 88.382C138.18 88.382 138.708 88.418 139.32 88.49C139.944 88.55 140.256 88.664 140.256 88.832L140.778 100.64C140.778 100.772 140.544 100.868 140.076 100.928C139.608 100.988 139.194 101.018 138.834 101.018ZM147.91 101.18C146.23 101.18 144.856 100.628 143.788 99.524C142.732 98.42 142.204 96.812 142.204 94.7C142.204 92.576 142.738 90.968 143.806 89.876C144.886 88.784 146.272 88.238 147.964 88.238C149.668 88.238 151.042 88.778 152.086 89.858C153.13 90.926 153.652 92.552 153.652 94.736C153.652 96.908 153.118 98.528 152.05 99.596C150.982 100.652 149.602 101.18 147.91 101.18ZM147.928 91.694C147.352 91.694 146.866 91.958 146.47 92.486C146.086 93.014 145.894 93.758 145.894 94.718C145.894 95.666 146.08 96.398 146.452 96.914C146.824 97.418 147.31 97.67 147.91 97.67C148.522 97.67 149.014 97.412 149.386 96.896C149.77 96.38 149.962 95.642 149.962 94.682C149.962 93.722 149.764 92.984 149.368 92.468C148.984 91.952 148.504 91.694 147.928 91.694ZM164.961 100.604C164.961 100.856 164.397 100.982 163.269 100.982C162.141 100.982 161.529 100.892 161.433 100.712L158.427 95.096V100.694C158.427 100.91 157.869 101.018 156.753 101.018C155.649 101.018 155.097 100.91 155.097 100.694V88.652C155.097 88.472 155.571 88.382 156.519 88.382C156.891 88.382 157.323 88.418 157.815 88.49C158.319 88.55 158.625 88.67 158.733 88.85L161.613 94.394V88.742C161.613 88.514 162.171 88.4 163.287 88.4C164.403 88.4 164.961 88.514 164.961 88.742V100.604ZM170.369 100.748C170.369 100.928 169.805 101.018 168.677 101.018L167.669 100.964C167.069 100.916 166.769 100.832 166.769 100.712V88.634C166.769 88.43 167.369 88.328 168.569 88.328C169.769 88.328 170.369 88.43 170.369 88.634V93.242L172.565 88.634C172.649 88.466 173.129 88.382 174.005 88.382C175.601 88.382 176.441 88.52 176.525 88.796C176.525 88.82 176.519 88.844 176.507 88.868L173.375 94.52L177.011 99.542C177.011 99.566 176.897 99.668 176.669 99.848C176.117 100.328 175.469 100.706 174.725 100.982C174.497 101.066 174.269 101.108 174.041 101.108L173.609 101.072C173.225 100.976 172.925 100.73 172.709 100.334L170.657 96.41H170.369V100.748ZM183.781 93.404C184.009 93.404 184.123 93.824 184.123 94.664C184.123 94.916 184.093 95.216 184.033 95.564C183.985 95.9 183.889 96.068 183.745 96.068H181.459V97.868H184.771C184.975 97.868 185.113 98.132 185.185 98.66C185.221 98.888 185.239 99.134 185.239 99.398C185.239 99.65 185.203 99.98 185.131 100.388C185.059 100.796 184.939 101 184.771 101H178.615C178.159 101 177.931 100.814 177.931 100.442V88.868C177.931 88.556 178.069 88.4 178.345 88.4H184.789C185.041 88.4 185.167 88.934 185.167 90.002C185.167 91.058 185.041 91.586 184.789 91.586H181.459V93.404H183.781ZM193.072 88.994C193.228 88.574 193.996 88.364 195.376 88.364C195.724 88.364 196.132 88.388 196.6 88.436C197.08 88.484 197.302 88.544 197.266 88.616L193.522 96.14V100.532C193.522 100.736 193.192 100.88 192.532 100.964C192.196 101.012 191.866 101.036 191.542 101.036C191.218 101.036 190.894 101.018 190.57 100.982C189.91 100.898 189.58 100.748 189.58 100.532V96.248L185.71 88.652C185.662 88.58 185.908 88.514 186.448 88.454C186.988 88.382 187.444 88.346 187.816 88.346C189.292 88.346 190.102 88.562 190.246 88.994L191.56 92.666L193.072 88.994Z" fill="white"/>
<defs>
<linearGradient id="paint0_linear" x1="138.5" y1="5.54043e-08" x2="139" y2="95" gradientUnits="userSpaceOnUse">
<stop stop-color="#25B3FF"/>
<stop offset="1" stop-color="white"/>
</linearGradient>
</defs>
</svg>
