<svg width="159" height="82" viewBox="0 0 159 82" fill="none" xmlns="http://www.w3.org/2000/svg">
<rect x="1" y="1" width="157" height="80" rx="6" fill="#EABE24" stroke="white" stroke-width="2"/>
<path d="M39.016 39.4C40.36 39.4 41.384 39.096 42.088 38.488C42.824 37.848 43.192 36.888 43.192 35.608C43.192 34.392 42.808 33.464 42.04 32.824C41.304 32.152 40.216 31.816 38.776 31.816C38.264 31.816 37.832 31.832 37.48 31.864C37.16 31.864 36.824 31.896 36.472 31.96V39.4H39.016ZM36.52 54.808C36.168 54.904 35.608 55 34.84 55.096C34.104 55.192 33.368 55.24 32.632 55.24C31.896 55.24 31.24 55.176 30.664 55.048C30.12 54.952 29.656 54.76 29.272 54.472C28.888 54.184 28.6 53.784 28.408 53.272C28.216 52.76 28.12 52.088 28.12 51.256V28.648C28.12 27.976 28.296 27.464 28.648 27.112C29.032 26.728 29.544 26.424 30.184 26.2C31.272 25.816 32.504 25.544 33.88 25.384C35.288 25.192 36.696 25.096 38.104 25.096C42.52 25.096 45.896 26.04 48.232 27.928C50.568 29.816 51.736 32.376 51.736 35.608C51.736 37.176 51.48 38.6 50.968 39.88C50.488 41.128 49.752 42.216 48.76 43.144C47.8 44.04 46.568 44.744 45.064 45.256C43.592 45.736 41.88 45.976 39.928 45.976H36.52V54.808ZM60.4746 55.144C59.0986 55.144 58.0106 54.744 57.2106 53.944C56.4106 53.144 56.0106 52.056 56.0106 50.68V25.864C56.3626 25.8 56.9226 25.72 57.6906 25.624C58.4586 25.496 59.1946 25.432 59.8986 25.432C60.6346 25.432 61.2746 25.496 61.8186 25.624C62.3946 25.72 62.8746 25.912 63.2586 26.2C63.6426 26.488 63.9306 26.888 64.1226 27.4C64.3146 27.912 64.4106 28.584 64.4106 29.416V48.376H75.4026C75.6266 48.728 75.8346 49.208 76.0266 49.816C76.2186 50.392 76.3146 51 76.3146 51.64C76.3146 52.92 76.0426 53.832 75.4986 54.376C74.9546 54.888 74.2346 55.144 73.3386 55.144H60.4746ZM87.2808 26.776C87.8248 26.456 88.6408 26.152 89.7288 25.864C90.8488 25.576 91.9688 25.432 93.0888 25.432C94.6888 25.432 96.0968 25.672 97.3128 26.152C98.5608 26.6 99.3608 27.32 99.7128 28.312C100.289 29.976 100.913 31.912 101.585 34.12C102.257 36.328 102.929 38.616 103.601 40.984C104.273 43.32 104.929 45.64 105.569 47.944C106.209 50.216 106.769 52.232 107.249 53.992C106.865 54.44 106.289 54.792 105.521 55.048C104.753 55.336 103.841 55.48 102.785 55.48C102.017 55.48 101.361 55.416 100.817 55.288C100.305 55.16 99.8728 54.968 99.5208 54.712C99.2008 54.456 98.9288 54.12 98.7048 53.704C98.5128 53.288 98.3368 52.808 98.1768 52.264L97.3128 48.952H88.6248C88.3688 49.912 88.1128 50.904 87.8568 51.928C87.6008 52.952 87.3448 53.944 87.0888 54.904C86.6408 55.064 86.1608 55.192 85.6488 55.288C85.1688 55.416 84.5768 55.48 83.8728 55.48C82.2408 55.48 81.0248 55.208 80.2248 54.664C79.4568 54.088 79.0728 53.304 79.0728 52.312C79.0728 51.864 79.1368 51.416 79.2648 50.968C79.3928 50.52 79.5368 49.992 79.6968 49.384C79.9208 48.52 80.2248 47.448 80.6088 46.168C81.0248 44.888 81.4728 43.512 81.9528 42.04C82.4328 40.536 82.9448 39 83.4888 37.432C84.0328 35.864 84.5447 34.392 85.0247 33.016C85.5048 31.608 85.9368 30.36 86.3208 29.272C86.7368 28.184 87.0568 27.352 87.2808 26.776ZM93.0408 32.968C92.5928 34.312 92.0808 35.816 91.5048 37.48C90.9608 39.112 90.4648 40.776 90.0168 42.472H95.9688C95.5208 40.744 95.0568 39.064 94.5768 37.432C94.1288 35.768 93.7128 34.28 93.3288 32.968H93.0408ZM124.29 54.808C123.938 54.904 123.394 55 122.658 55.096C121.922 55.192 121.202 55.24 120.498 55.24C119.026 55.24 117.922 55 117.186 54.52C116.45 54.008 116.082 52.952 116.082 51.352V44.872C115.282 43.688 114.418 42.376 113.49 40.936C112.562 39.496 111.65 38.024 110.754 36.52C109.858 35.016 109.026 33.544 108.258 32.104C107.49 30.632 106.866 29.288 106.386 28.072C106.802 27.496 107.362 26.968 108.066 26.488C108.802 26.008 109.698 25.768 110.754 25.768C112.002 25.768 113.01 26.024 113.778 26.536C114.578 27.048 115.33 28.008 116.034 29.416L120.018 37.432H120.306C120.754 36.44 121.138 35.544 121.458 34.744C121.81 33.912 122.146 33.096 122.466 32.296C122.786 31.464 123.122 30.616 123.474 29.752C123.826 28.856 124.226 27.832 124.674 26.68C125.25 26.392 125.89 26.168 126.594 26.008C127.298 25.848 127.97 25.768 128.61 25.768C129.73 25.768 130.674 26.072 131.442 26.68C132.242 27.256 132.642 28.136 132.642 29.32C132.642 29.704 132.562 30.168 132.402 30.712C132.242 31.256 131.874 32.088 131.298 33.208C130.722 34.296 129.874 35.784 128.754 37.672C127.666 39.56 126.178 42.024 124.29 45.064V54.808Z" fill="#1D1135"/>
</svg>
