<svg width="373" height="516" viewBox="0 0 373 516" fill="none" xmlns="http://www.w3.org/2000/svg">
<g opacity="0.05">
<path opacity="0.2" fill-rule="evenodd" clip-rule="evenodd" d="M136.875 191.15L138.426 195.074L142.35 196.625L138.426 198.176L136.875 202.1L135.324 198.176L131.4 196.625L135.324 195.074L136.875 191.15Z" fill="#779FC3"/>
<path opacity="0.2" fill-rule="evenodd" clip-rule="evenodd" d="M139.824 196.625C139.824 198.253 138.503 199.574 136.875 199.574C135.247 199.574 133.926 198.253 133.926 196.625C133.926 194.997 135.247 193.676 136.875 193.676C138.503 193.676 139.824 194.997 139.824 196.625Z" fill="#779FC3"/>
<path fill-rule="evenodd" clip-rule="evenodd" d="M134.78 196.625C134.78 197.781 135.719 198.72 136.875 198.72C138.031 198.72 138.97 197.781 138.97 196.625C138.97 195.469 138.031 194.53 136.875 194.53C135.719 194.53 134.78 195.469 134.78 196.625Z" fill="#779FC3"/>
<path opacity="0.2" fill-rule="evenodd" clip-rule="evenodd" d="M27.375 443L28.9258 446.924L32.85 448.475L28.9258 450.026L27.375 453.95L25.8242 450.026L21.9 448.475L25.8242 446.924L27.375 443Z" fill="#487FAE"/>
<path opacity="0.2" fill-rule="evenodd" clip-rule="evenodd" d="M30.3235 448.475C30.3235 450.103 29.0026 451.424 27.375 451.424C25.7474 451.424 24.4265 450.103 24.4265 448.475C24.4265 446.847 25.7474 445.526 27.375 445.526C29.0026 445.526 30.3235 446.847 30.3235 448.475Z" fill="#487FAE"/>
<path fill-rule="evenodd" clip-rule="evenodd" d="M25.28 448.475C25.28 449.631 26.2186 450.57 27.375 450.57C28.5314 450.57 29.47 449.631 29.47 448.475C29.47 447.319 28.5314 446.38 27.375 446.38C26.2186 446.38 25.28 447.319 25.28 448.475Z" fill="#487FAE"/>
<path opacity="0.2" fill-rule="evenodd" clip-rule="evenodd" d="M16.425 351.75L17.9758 355.674L21.9 357.225L17.9758 358.776L16.425 362.7L14.8742 358.776L10.95 357.225L14.8742 355.674L16.425 351.75Z" fill="#21649C"/>
<path opacity="0.2" fill-rule="evenodd" clip-rule="evenodd" d="M19.3735 357.225C19.3735 358.853 18.0526 360.174 16.425 360.174C14.7974 360.174 13.4765 358.853 13.4765 357.225C13.4765 355.597 14.7974 354.276 16.425 354.276C18.0526 354.276 19.3735 355.597 19.3735 357.225Z" fill="#21649C"/>
<path fill-rule="evenodd" clip-rule="evenodd" d="M14.33 357.225C14.33 358.381 15.2686 359.32 16.425 359.32C17.5814 359.32 18.52 358.381 18.52 357.225C18.52 356.069 17.5814 355.13 16.425 355.13C15.2686 355.13 14.33 356.069 14.33 357.225Z" fill="#21649C"/>
<path opacity="0.2" fill-rule="evenodd" clip-rule="evenodd" d="M67.525 395.55L69.0758 399.474L73 401.025L69.0758 402.576L67.525 406.5L65.9742 402.576L62.05 401.025L65.9742 399.474L67.525 395.55Z" fill="#3E78AB"/>
<path opacity="0.2" fill-rule="evenodd" clip-rule="evenodd" d="M70.4735 401.025C70.4735 402.653 69.1526 403.974 67.525 403.974C65.8974 403.974 64.5765 402.653 64.5765 401.025C64.5765 399.397 65.8974 398.076 67.525 398.076C69.1526 398.076 70.4735 399.397 70.4735 401.025Z" fill="#3E78AB"/>
<path fill-rule="evenodd" clip-rule="evenodd" d="M65.43 401.025C65.43 402.181 66.3686 403.12 67.525 403.12C68.6814 403.12 69.62 402.181 69.62 401.025C69.62 399.869 68.6814 398.93 67.525 398.93C66.3686 398.93 65.43 399.869 65.43 401.025Z" fill="#3E78AB"/>
<path opacity="0.2" fill-rule="evenodd" clip-rule="evenodd" d="M198.925 147.35L200.476 151.274L204.4 152.825L200.476 154.376L198.925 158.3L197.374 154.376L193.45 152.825L197.374 151.274L198.925 147.35Z" fill="#598BB6"/>
<path opacity="0.2" fill-rule="evenodd" clip-rule="evenodd" d="M201.874 152.825C201.874 154.453 200.553 155.774 198.925 155.774C197.297 155.774 195.977 154.453 195.977 152.825C195.977 151.197 197.297 149.877 198.925 149.877C200.553 149.877 201.874 151.197 201.874 152.825Z" fill="#598BB6"/>
<path fill-rule="evenodd" clip-rule="evenodd" d="M196.83 152.825C196.83 153.981 197.769 154.92 198.925 154.92C200.081 154.92 201.02 153.981 201.02 152.825C201.02 151.669 200.081 150.73 198.925 150.73C197.769 150.73 196.83 151.669 196.83 152.825Z" fill="#598BB6"/>
<path opacity="0.2" fill-rule="evenodd" clip-rule="evenodd" d="M52.925 479.5L54.4758 483.424L58.4 484.975L54.4758 486.526L52.925 490.45L51.3742 486.526L47.45 484.975L51.3742 483.424L52.925 479.5Z" fill="#6392B9"/>
<path opacity="0.2" fill-rule="evenodd" clip-rule="evenodd" d="M55.8735 484.975C55.8735 486.603 54.5526 487.924 52.925 487.924C51.2974 487.924 49.9765 486.603 49.9765 484.975C49.9765 483.348 51.2974 482.027 52.925 482.027C54.5526 482.027 55.8735 483.348 55.8735 484.975Z" fill="#6392B9"/>
<path fill-rule="evenodd" clip-rule="evenodd" d="M50.83 484.975C50.83 486.131 51.7686 487.07 52.925 487.07C54.0814 487.07 55.02 486.131 55.02 484.975C55.02 483.819 54.0814 482.88 52.925 482.88C51.7686 482.88 50.83 483.819 50.83 484.975Z" fill="#6392B9"/>
<path opacity="0.2" fill-rule="evenodd" clip-rule="evenodd" d="M82.125 311.6L83.6758 315.524L87.6 317.075L83.6758 318.626L82.125 322.55L80.5742 318.626L76.65 317.075L80.5742 315.524L82.125 311.6Z" fill="#3270A1"/>
<path opacity="0.2" fill-rule="evenodd" clip-rule="evenodd" d="M85.0735 317.075C85.0735 318.703 83.7526 320.024 82.125 320.024C80.4974 320.024 79.1765 318.703 79.1765 317.075C79.1765 315.447 80.4974 314.126 82.125 314.126C83.7526 314.126 85.0735 315.447 85.0735 317.075Z" fill="#3270A1"/>
<path fill-rule="evenodd" clip-rule="evenodd" d="M80.03 317.075C80.03 318.231 80.9686 319.17 82.125 319.17C83.2814 319.17 84.22 318.231 84.22 317.075C84.22 315.919 83.2814 314.98 82.125 314.98C80.9686 314.98 80.03 315.919 80.03 317.075Z" fill="#3270A1"/>
<path opacity="0.2" fill-rule="evenodd" clip-rule="evenodd" d="M301.125 205.75L302.676 209.674L306.6 211.225L302.676 212.776L301.125 216.7L299.574 212.776L295.65 211.225L299.574 209.674L301.125 205.75Z" fill="#5A8DB8"/>
<path opacity="0.2" fill-rule="evenodd" clip-rule="evenodd" d="M304.074 211.225C304.074 212.853 302.753 214.174 301.125 214.174C299.497 214.174 298.177 212.853 298.177 211.225C298.177 209.597 299.497 208.277 301.125 208.277C302.753 208.277 304.074 209.597 304.074 211.225Z" fill="#5A8DB8"/>
<path fill-rule="evenodd" clip-rule="evenodd" d="M299.03 211.225C299.03 212.382 299.969 213.32 301.125 213.32C302.281 213.32 303.22 212.382 303.22 211.225C303.22 210.069 302.281 209.13 301.125 209.13C299.969 209.13 299.03 210.069 299.03 211.225Z" fill="#5A8DB8"/>
<path opacity="0.2" fill-rule="evenodd" clip-rule="evenodd" d="M107.675 191.15L110.26 197.69L116.8 200.275L110.26 202.86L107.675 209.4L105.09 202.86L98.55 200.275L105.09 197.69L107.675 191.15Z" fill="#3372A7"/>
<path opacity="0.3" fill-rule="evenodd" clip-rule="evenodd" d="M112.589 200.275C112.589 202.988 110.388 205.189 107.675 205.189C104.962 205.189 102.761 202.988 102.761 200.275C102.761 197.562 104.962 195.361 107.675 195.361C110.388 195.361 112.589 197.562 112.589 200.275Z" fill="#3372A7"/>
<path fill-rule="evenodd" clip-rule="evenodd" d="M104.183 200.275C104.183 202.202 105.748 203.767 107.675 203.767C109.602 203.767 111.167 202.202 111.167 200.275C111.167 198.348 109.602 196.783 107.675 196.783C105.748 196.783 104.183 198.348 104.183 200.275Z" fill="#3372A7"/>
<path opacity="0.2" fill-rule="evenodd" clip-rule="evenodd" d="M224.475 180.2L227.06 186.74L233.6 189.325L227.06 191.91L224.475 198.45L221.89 191.91L215.35 189.325L221.89 186.74L224.475 180.2Z" fill="#185C94"/>
<path opacity="0.3" fill-rule="evenodd" clip-rule="evenodd" d="M229.389 189.325C229.389 192.038 227.188 194.239 224.475 194.239C221.762 194.239 219.561 192.038 219.561 189.325C219.561 186.612 221.762 184.411 224.475 184.411C227.188 184.411 229.389 186.612 229.389 189.325Z" fill="#185C94"/>
<path fill-rule="evenodd" clip-rule="evenodd" d="M220.983 189.325C220.983 191.252 222.548 192.817 224.475 192.817C226.402 192.817 227.967 191.252 227.967 189.325C227.967 187.398 226.402 185.833 224.475 185.833C222.548 185.833 220.983 187.398 220.983 189.325Z" fill="#185C94"/>
<path opacity="0.2" fill-rule="evenodd" clip-rule="evenodd" d="M246.375 194.8L248.96 201.34L255.5 203.925L248.96 206.51L246.375 213.05L243.79 206.51L237.25 203.925L243.79 201.34L246.375 194.8Z" fill="#7FA7CA"/>
<path opacity="0.3" fill-rule="evenodd" clip-rule="evenodd" d="M251.289 203.925C251.289 206.638 249.088 208.839 246.375 208.839C243.662 208.839 241.461 206.638 241.461 203.925C241.461 201.212 243.662 199.011 246.375 199.011C249.088 199.011 251.289 201.212 251.289 203.925Z" fill="#7FA7CA"/>
<path fill-rule="evenodd" clip-rule="evenodd" d="M242.883 203.925C242.883 205.852 244.448 207.417 246.375 207.417C248.302 207.417 249.867 205.852 249.867 203.925C249.867 201.998 248.302 200.433 246.375 200.433C244.448 200.433 242.883 201.998 242.883 203.925Z" fill="#7FA7CA"/>
<path opacity="0.2" fill-rule="evenodd" clip-rule="evenodd" d="M217.175 293.35L219.76 299.89L226.3 302.475L219.76 305.06L217.175 311.6L214.59 305.06L208.05 302.475L214.59 299.89L217.175 293.35Z" fill="#6392B9"/>
<path opacity="0.3" fill-rule="evenodd" clip-rule="evenodd" d="M222.089 302.475C222.089 305.188 219.888 307.389 217.175 307.389C214.462 307.389 212.261 305.188 212.261 302.475C212.261 299.762 214.462 297.561 217.175 297.561C219.888 297.561 222.089 299.762 222.089 302.475Z" fill="#6392B9"/>
<path fill-rule="evenodd" clip-rule="evenodd" d="M213.683 302.475C213.683 304.403 215.248 305.967 217.175 305.967C219.102 305.967 220.667 304.403 220.667 302.475C220.667 300.548 219.102 298.983 217.175 298.983C215.248 298.983 213.683 300.548 213.683 302.475Z" fill="#6392B9"/>
<path opacity="0.2" fill-rule="evenodd" clip-rule="evenodd" d="M78.475 234.95L81.0596 241.49L87.6 244.075L81.0596 246.66L78.475 253.2L75.8903 246.66L69.35 244.075L75.8903 241.49L78.475 234.95Z" fill="#185C94"/>
<path opacity="0.3" fill-rule="evenodd" clip-rule="evenodd" d="M83.3892 244.075C83.3892 246.788 81.1876 248.989 78.4749 248.989C75.7623 248.989 73.5607 246.788 73.5607 244.075C73.5607 241.362 75.7623 239.161 78.4749 239.161C81.1876 239.161 83.3892 241.362 83.3892 244.075Z" fill="#185C94"/>
<path fill-rule="evenodd" clip-rule="evenodd" d="M74.9833 244.075C74.9833 246.002 76.5476 247.567 78.475 247.567C80.4024 247.567 81.9667 246.002 81.9667 244.075C81.9667 242.148 80.4024 240.583 78.475 240.583C76.5476 240.583 74.9833 242.148 74.9833 244.075Z" fill="#185C94"/>
<path opacity="0.2" fill-rule="evenodd" clip-rule="evenodd" d="M118.625 377.3L121.21 383.84L127.75 386.425L121.21 389.01L118.625 395.55L116.04 389.01L109.5 386.425L116.04 383.84L118.625 377.3Z" fill="#5E8EB7"/>
<path opacity="0.3" fill-rule="evenodd" clip-rule="evenodd" d="M123.539 386.425C123.539 389.138 121.338 391.339 118.625 391.339C115.912 391.339 113.711 389.138 113.711 386.425C113.711 383.712 115.912 381.511 118.625 381.511C121.338 381.511 123.539 383.712 123.539 386.425Z" fill="#5E8EB7"/>
<path fill-rule="evenodd" clip-rule="evenodd" d="M115.133 386.425C115.133 388.352 116.698 389.917 118.625 389.917C120.552 389.917 122.117 388.352 122.117 386.425C122.117 384.498 120.552 382.933 118.625 382.933C116.698 382.933 115.133 384.498 115.133 386.425Z" fill="#5E8EB7"/>
<path opacity="0.2" fill-rule="evenodd" clip-rule="evenodd" d="M363.175 224L365.76 230.54L372.3 233.125L365.76 235.71L363.175 242.25L360.59 235.71L354.05 233.125L360.59 230.54L363.175 224Z" fill="#3976A7"/>
<path opacity="0.3" fill-rule="evenodd" clip-rule="evenodd" d="M368.089 233.125C368.089 235.838 365.888 238.039 363.175 238.039C360.462 238.039 358.261 235.838 358.261 233.125C358.261 230.412 360.462 228.211 363.175 228.211C365.888 228.211 368.089 230.412 368.089 233.125Z" fill="#3976A7"/>
<path fill-rule="evenodd" clip-rule="evenodd" d="M359.683 233.125C359.683 235.052 361.248 236.617 363.175 236.617C365.102 236.617 366.667 235.052 366.667 233.125C366.667 231.198 365.102 229.633 363.175 229.633C361.248 229.633 359.683 231.198 359.683 233.125Z" fill="#3976A7"/>
<path opacity="0.2" fill-rule="evenodd" clip-rule="evenodd" d="M202.575 231.771L205.16 238.311L211.7 240.896L205.16 243.48L202.575 250.021L199.99 243.48L193.45 240.896L199.99 238.311L202.575 231.771Z" fill="#1B5F97"/>
<path opacity="0.3" fill-rule="evenodd" clip-rule="evenodd" d="M207.489 240.895C207.489 243.608 205.288 245.81 202.575 245.81C199.862 245.81 197.661 243.608 197.661 240.895C197.661 238.183 199.862 235.981 202.575 235.981C205.288 235.981 207.489 238.183 207.489 240.895Z" fill="#1B5F97"/>
<path fill-rule="evenodd" clip-rule="evenodd" d="M199.083 240.896C199.083 242.823 200.648 244.387 202.575 244.387C204.502 244.387 206.067 242.823 206.067 240.896C206.067 238.968 204.502 237.404 202.575 237.404C200.648 237.404 199.083 238.968 199.083 240.896Z" fill="#1B5F97"/>
<path opacity="0.2" fill-rule="evenodd" clip-rule="evenodd" d="M323.025 483.15L325.61 489.69L332.15 492.275L325.61 494.86L323.025 501.4L320.44 494.86L313.9 492.275L320.44 489.69L323.025 483.15Z" fill="#185C94"/>
<path opacity="0.3" fill-rule="evenodd" clip-rule="evenodd" d="M327.939 492.275C327.939 494.988 325.738 497.189 323.025 497.189C320.312 497.189 318.111 494.988 318.111 492.275C318.111 489.562 320.312 487.361 323.025 487.361C325.738 487.361 327.939 489.562 327.939 492.275Z" fill="#185C94"/>
<path fill-rule="evenodd" clip-rule="evenodd" d="M319.533 492.275C319.533 494.202 321.098 495.767 323.025 495.767C324.952 495.767 326.517 494.202 326.517 492.275C326.517 490.348 324.952 488.783 323.025 488.783C321.098 488.783 319.533 490.348 319.533 492.275Z" fill="#185C94"/>
<path opacity="0.2" fill-rule="evenodd" clip-rule="evenodd" d="M158.775 475.85L161.36 482.39L167.9 484.975L161.36 487.56L158.775 494.1L156.19 487.56L149.65 484.975L156.19 482.39L158.775 475.85Z" fill="#5C8DB7"/>
<path opacity="0.3" fill-rule="evenodd" clip-rule="evenodd" d="M163.689 484.975C163.689 487.688 161.488 489.889 158.775 489.889C156.062 489.889 153.861 487.688 153.861 484.975C153.861 482.262 156.062 480.061 158.775 480.061C161.488 480.061 163.689 482.262 163.689 484.975Z" fill="#5C8DB7"/>
<path fill-rule="evenodd" clip-rule="evenodd" d="M155.283 484.975C155.283 486.902 156.848 488.467 158.775 488.467C160.702 488.467 162.267 486.902 162.267 484.975C162.267 483.048 160.702 481.483 158.775 481.483C156.848 481.483 155.283 483.048 155.283 484.975Z" fill="#5C8DB7"/>
<path opacity="0.2" fill-rule="evenodd" clip-rule="evenodd" d="M89.425 289.7L92.0096 296.24L98.55 298.825L92.0096 301.41L89.425 307.95L86.8403 301.41L80.3 298.825L86.8403 296.24L89.425 289.7Z" fill="#185C94"/>
<path opacity="0.3" fill-rule="evenodd" clip-rule="evenodd" d="M94.3392 298.825C94.3392 301.538 92.1376 303.739 89.425 303.739C86.7123 303.739 84.5107 301.538 84.5107 298.825C84.5107 296.112 86.7123 293.911 89.425 293.911C92.1376 293.911 94.3392 296.112 94.3392 298.825Z" fill="#185C94"/>
<path fill-rule="evenodd" clip-rule="evenodd" d="M85.9333 298.825C85.9333 300.752 87.4976 302.317 89.425 302.317C91.3524 302.317 92.9167 300.752 92.9167 298.825C92.9167 296.898 91.3524 295.333 89.425 295.333C87.4976 295.333 85.9333 296.898 85.9333 298.825Z" fill="#185C94"/>
<path opacity="0.2" fill-rule="evenodd" clip-rule="evenodd" d="M348.575 329.85L351.16 336.39L357.7 338.975L351.16 341.56L348.575 348.1L345.99 341.56L339.45 338.975L345.99 336.39L348.575 329.85Z" fill="#6693BC"/>
<path opacity="0.3" fill-rule="evenodd" clip-rule="evenodd" d="M353.489 338.975C353.489 341.688 351.288 343.889 348.575 343.889C345.862 343.889 343.661 341.688 343.661 338.975C343.661 336.262 345.862 334.061 348.575 334.061C351.288 334.061 353.489 336.262 353.489 338.975Z" fill="#6693BC"/>
<path fill-rule="evenodd" clip-rule="evenodd" d="M345.083 338.975C345.083 340.902 346.648 342.467 348.575 342.467C350.502 342.467 352.067 340.902 352.067 338.975C352.067 337.048 350.502 335.483 348.575 335.483C346.648 335.483 345.083 337.048 345.083 338.975Z" fill="#6693BC"/>
<path opacity="0.2" fill-rule="evenodd" clip-rule="evenodd" d="M111.325 282.4L113.91 288.94L120.45 291.525L113.91 294.11L111.325 300.65L108.74 294.11L102.2 291.525L108.74 288.94L111.325 282.4Z" fill="#1F6197"/>
<path opacity="0.3" fill-rule="evenodd" clip-rule="evenodd" d="M116.239 291.525C116.239 294.238 114.038 296.439 111.325 296.439C108.612 296.439 106.411 294.238 106.411 291.525C106.411 288.812 108.612 286.611 111.325 286.611C114.038 286.611 116.239 288.812 116.239 291.525Z" fill="#1F6197"/>
<path fill-rule="evenodd" clip-rule="evenodd" d="M107.833 291.525C107.833 293.452 109.398 295.017 111.325 295.017C113.252 295.017 114.817 293.452 114.817 291.525C114.817 289.598 113.252 288.033 111.325 288.033C109.398 288.033 107.833 289.598 107.833 291.525Z" fill="#1F6197"/>
<path opacity="0.2" fill-rule="evenodd" clip-rule="evenodd" d="M279.225 293.35L280.776 297.274L284.7 298.825L280.776 300.376L279.225 304.3L277.674 300.376L273.75 298.825L277.674 297.274L279.225 293.35Z" fill="#1D6097"/>
<path opacity="0.2" fill-rule="evenodd" clip-rule="evenodd" d="M282.174 298.825C282.174 300.453 280.853 301.774 279.225 301.774C277.597 301.774 276.276 300.453 276.276 298.825C276.276 297.197 277.597 295.876 279.225 295.876C280.853 295.876 282.174 297.197 282.174 298.825Z" fill="#1D6097"/>
<path fill-rule="evenodd" clip-rule="evenodd" d="M277.13 298.825C277.13 299.981 278.069 300.92 279.225 300.92C280.381 300.92 281.32 299.981 281.32 298.825C281.32 297.669 280.381 296.73 279.225 296.73C278.069 296.73 277.13 297.669 277.13 298.825Z" fill="#1D6097"/>
<path opacity="0.2" fill-rule="evenodd" clip-rule="evenodd" d="M217.175 278.75L218.726 282.674L222.65 284.225L218.726 285.776L217.175 289.7L215.624 285.776L211.7 284.225L215.624 282.674L217.175 278.75Z" fill="#185C94"/>
<path opacity="0.2" fill-rule="evenodd" clip-rule="evenodd" d="M220.124 284.225C220.124 285.853 218.803 287.174 217.175 287.174C215.547 287.174 214.227 285.853 214.227 284.225C214.227 282.597 215.547 281.276 217.175 281.276C218.803 281.276 220.124 282.597 220.124 284.225Z" fill="#185C94"/>
<path fill-rule="evenodd" clip-rule="evenodd" d="M215.08 284.225C215.08 285.381 216.019 286.32 217.175 286.32C218.331 286.32 219.27 285.381 219.27 284.225C219.27 283.069 218.331 282.13 217.175 282.13C216.019 282.13 215.08 283.069 215.08 284.225Z" fill="#185C94"/>
<path opacity="0.2" fill-rule="evenodd" clip-rule="evenodd" d="M323.025 245.9L324.576 249.824L328.5 251.375L324.576 252.926L323.025 256.85L321.474 252.926L317.55 251.375L321.474 249.824L323.025 245.9Z" fill="#195D95"/>
<path opacity="0.2" fill-rule="evenodd" clip-rule="evenodd" d="M325.974 251.375C325.974 253.003 324.653 254.324 323.025 254.324C321.397 254.324 320.077 253.003 320.077 251.375C320.077 249.747 321.397 248.426 323.025 248.426C324.653 248.426 325.974 249.747 325.974 251.375Z" fill="#195D95"/>
<path fill-rule="evenodd" clip-rule="evenodd" d="M320.93 251.375C320.93 252.531 321.869 253.47 323.025 253.47C324.181 253.47 325.12 252.531 325.12 251.375C325.12 250.219 324.181 249.28 323.025 249.28C321.869 249.28 320.93 250.219 320.93 251.375Z" fill="#195D95"/>
<path opacity="0.2" fill-rule="evenodd" clip-rule="evenodd" d="M180.675 187.5L182.226 191.424L186.15 192.975L182.226 194.526L180.675 198.45L179.124 194.526L175.2 192.975L179.124 191.424L180.675 187.5Z" fill="#26669C"/>
<path opacity="0.2" fill-rule="evenodd" clip-rule="evenodd" d="M183.624 192.975C183.624 194.603 182.303 195.924 180.675 195.924C179.047 195.924 177.727 194.603 177.727 192.975C177.727 191.347 179.047 190.026 180.675 190.026C182.303 190.026 183.624 191.347 183.624 192.975Z" fill="#26669C"/>
<path fill-rule="evenodd" clip-rule="evenodd" d="M178.58 192.975C178.58 194.131 179.519 195.07 180.675 195.07C181.831 195.07 182.77 194.131 182.77 192.975C182.77 191.819 181.831 190.88 180.675 190.88C179.519 190.88 178.58 191.819 178.58 192.975Z" fill="#26669C"/>
<path opacity="0.2" fill-rule="evenodd" clip-rule="evenodd" d="M147.825 161.95L149.376 165.874L153.3 167.425L149.376 168.976L147.825 172.9L146.274 168.976L142.35 167.425L146.274 165.874L147.825 161.95Z" fill="#3976A8"/>
<path opacity="0.2" fill-rule="evenodd" clip-rule="evenodd" d="M150.774 167.425C150.774 169.053 149.453 170.374 147.825 170.374C146.197 170.374 144.876 169.053 144.876 167.425C144.876 165.797 146.197 164.476 147.825 164.476C149.453 164.476 150.774 165.797 150.774 167.425Z" fill="#3976A8"/>
<path fill-rule="evenodd" clip-rule="evenodd" d="M145.73 167.425C145.73 168.581 146.669 169.52 147.825 169.52C148.981 169.52 149.92 168.581 149.92 167.425C149.92 166.269 148.981 165.33 147.825 165.33C146.669 165.33 145.73 166.269 145.73 167.425Z" fill="#3976A8"/>
<path opacity="0.2" fill-rule="evenodd" clip-rule="evenodd" d="M209.875 264.15L211.426 268.074L215.35 269.625L211.426 271.176L209.875 275.1L208.324 271.176L204.4 269.625L208.324 268.074L209.875 264.15Z" fill="#185C94"/>
<path opacity="0.2" fill-rule="evenodd" clip-rule="evenodd" d="M212.824 269.625C212.824 271.253 211.503 272.574 209.875 272.574C208.247 272.574 206.927 271.253 206.927 269.625C206.927 267.997 208.247 266.676 209.875 266.676C211.503 266.676 212.824 267.997 212.824 269.625Z" fill="#185C94"/>
<path fill-rule="evenodd" clip-rule="evenodd" d="M207.78 269.625C207.78 270.781 208.719 271.72 209.875 271.72C211.031 271.72 211.97 270.781 211.97 269.625C211.97 268.468 211.031 267.53 209.875 267.53C208.719 267.53 207.78 268.468 207.78 269.625Z" fill="#185C94"/>
<path opacity="0.2" fill-rule="evenodd" clip-rule="evenodd" d="M209.875 315.25L211.426 319.174L215.35 320.725L211.426 322.276L209.875 326.2L208.324 322.276L204.4 320.725L208.324 319.174L209.875 315.25Z" fill="#1A5E96"/>
<path opacity="0.2" fill-rule="evenodd" clip-rule="evenodd" d="M212.824 320.725C212.824 322.353 211.503 323.674 209.875 323.674C208.247 323.674 206.927 322.353 206.927 320.725C206.927 319.097 208.247 317.776 209.875 317.776C211.503 317.776 212.824 319.097 212.824 320.725Z" fill="#1A5E96"/>
<path fill-rule="evenodd" clip-rule="evenodd" d="M207.78 320.725C207.78 321.881 208.719 322.82 209.875 322.82C211.031 322.82 211.97 321.881 211.97 320.725C211.97 319.569 211.031 318.63 209.875 318.63C208.719 318.63 207.78 319.569 207.78 320.725Z" fill="#1A5E96"/>
<path opacity="0.2" fill-rule="evenodd" clip-rule="evenodd" d="M348.575 245.9L350.126 249.824L354.05 251.375L350.126 252.926L348.575 256.85L347.024 252.926L343.1 251.375L347.024 249.824L348.575 245.9Z" fill="#3270A5"/>
<path opacity="0.2" fill-rule="evenodd" clip-rule="evenodd" d="M351.524 251.375C351.524 253.003 350.203 254.324 348.575 254.324C346.947 254.324 345.626 253.003 345.626 251.375C345.626 249.747 346.947 248.426 348.575 248.426C350.203 248.426 351.524 249.747 351.524 251.375Z" fill="#3270A5"/>
<path fill-rule="evenodd" clip-rule="evenodd" d="M346.48 251.375C346.48 252.531 347.418 253.47 348.575 253.47C349.731 253.47 350.67 252.531 350.67 251.375C350.67 250.219 349.731 249.28 348.575 249.28C347.418 249.28 346.48 250.219 346.48 251.375Z" fill="#3270A5"/>
<path opacity="0.2" fill-rule="evenodd" clip-rule="evenodd" d="M228.125 486.8L230.71 493.34L237.25 495.925L230.71 498.51L228.125 505.05L225.54 498.51L219 495.925L225.54 493.34L228.125 486.8Z" fill="#5F90B7"/>
<path opacity="0.3" fill-rule="evenodd" clip-rule="evenodd" d="M233.039 495.925C233.039 498.638 230.838 500.839 228.125 500.839C225.412 500.839 223.211 498.638 223.211 495.925C223.211 493.212 225.412 491.011 228.125 491.011C230.838 491.011 233.039 493.212 233.039 495.925Z" fill="#5F90B7"/>
<path fill-rule="evenodd" clip-rule="evenodd" d="M224.633 495.925C224.633 497.852 226.198 499.417 228.125 499.417C230.052 499.417 231.617 497.852 231.617 495.925C231.617 493.998 230.052 492.433 228.125 492.433C226.198 492.433 224.633 493.998 224.633 495.925Z" fill="#5F90B7"/>
<path opacity="0.2" fill-rule="evenodd" clip-rule="evenodd" d="M129.575 494.1L132.16 500.64L138.7 503.225L132.16 505.81L129.575 512.35L126.99 505.81L120.45 503.225L126.99 500.64L129.575 494.1Z" fill="#4982AD"/>
<path opacity="0.3" fill-rule="evenodd" clip-rule="evenodd" d="M134.489 503.225C134.489 505.938 132.288 508.139 129.575 508.139C126.862 508.139 124.661 505.938 124.661 503.225C124.661 500.512 126.862 498.311 129.575 498.311C132.288 498.311 134.489 500.512 134.489 503.225Z" fill="#4982AD"/>
<path fill-rule="evenodd" clip-rule="evenodd" d="M126.083 503.225C126.083 505.152 127.648 506.717 129.575 506.717C131.502 506.717 133.067 505.152 133.067 503.225C133.067 501.298 131.502 499.733 129.575 499.733C127.648 499.733 126.083 501.298 126.083 503.225Z" fill="#4982AD"/>
<path opacity="0.2" fill-rule="evenodd" clip-rule="evenodd" d="M12.775 140.05L15.3596 146.59L21.9 149.175L15.3596 151.76L12.775 158.3L10.1903 151.76L3.64999 149.175L10.1903 146.59L12.775 140.05Z" fill="#447CAA"/>
<path opacity="0.3" fill-rule="evenodd" clip-rule="evenodd" d="M17.6892 149.175C17.6892 151.888 15.4876 154.089 12.775 154.089C10.0624 154.089 7.86078 151.888 7.86078 149.175C7.86078 146.462 10.0624 144.261 12.775 144.261C15.4876 144.261 17.6892 146.462 17.6892 149.175Z" fill="#447CAA"/>
<path fill-rule="evenodd" clip-rule="evenodd" d="M9.28333 149.175C9.28333 151.102 10.8476 152.667 12.775 152.667C14.7024 152.667 16.2666 151.102 16.2666 149.175C16.2666 147.248 14.7024 145.683 12.775 145.683C10.8476 145.683 9.28333 147.248 9.28333 149.175Z" fill="#447CAA"/>
<path opacity="0.2" fill-rule="evenodd" clip-rule="evenodd" d="M198.925 399.2L201.51 405.74L208.05 408.325L201.51 410.91L198.925 417.45L196.34 410.91L189.8 408.325L196.34 405.74L198.925 399.2Z" fill="#185C94"/>
<path opacity="0.3" fill-rule="evenodd" clip-rule="evenodd" d="M203.839 408.325C203.839 411.038 201.638 413.239 198.925 413.239C196.212 413.239 194.011 411.038 194.011 408.325C194.011 405.612 196.212 403.411 198.925 403.411C201.638 403.411 203.839 405.612 203.839 408.325Z" fill="#185C94"/>
<path fill-rule="evenodd" clip-rule="evenodd" d="M195.433 408.325C195.433 410.252 196.998 411.817 198.925 411.817C200.852 411.817 202.417 410.252 202.417 408.325C202.417 406.398 200.852 404.833 198.925 404.833C196.998 404.833 195.433 406.398 195.433 408.325Z" fill="#185C94"/>
<path opacity="0.2" fill-rule="evenodd" clip-rule="evenodd" d="M166.075 253.2L168.66 259.74L175.2 262.325L168.66 264.91L166.075 271.45L163.49 264.91L156.95 262.325L163.49 259.74L166.075 253.2Z" fill="#5287B1"/>
<path opacity="0.3" fill-rule="evenodd" clip-rule="evenodd" d="M170.989 262.325C170.989 265.038 168.788 267.239 166.075 267.239C163.362 267.239 161.161 265.038 161.161 262.325C161.161 259.612 163.362 257.411 166.075 257.411C168.788 257.411 170.989 259.612 170.989 262.325Z" fill="#5287B1"/>
<path fill-rule="evenodd" clip-rule="evenodd" d="M162.583 262.325C162.583 264.252 164.148 265.817 166.075 265.817C168.002 265.817 169.567 264.252 169.567 262.325C169.567 260.398 168.002 258.833 166.075 258.833C164.148 258.833 162.583 260.398 162.583 262.325Z" fill="#5287B1"/>
<path opacity="0.2" fill-rule="evenodd" clip-rule="evenodd" d="M257.325 417.45L259.91 423.99L266.45 426.575L259.91 429.16L257.325 435.7L254.74 429.16L248.2 426.575L254.74 423.99L257.325 417.45Z" fill="#5F92B8"/>
<path opacity="0.3" fill-rule="evenodd" clip-rule="evenodd" d="M262.239 426.575C262.239 429.288 260.038 431.489 257.325 431.489C254.612 431.489 252.411 429.288 252.411 426.575C252.411 423.862 254.612 421.661 257.325 421.661C260.038 421.661 262.239 423.862 262.239 426.575Z" fill="#5F92B8"/>
<path fill-rule="evenodd" clip-rule="evenodd" d="M253.833 426.575C253.833 428.502 255.398 430.067 257.325 430.067C259.252 430.067 260.817 428.502 260.817 426.575C260.817 424.648 259.252 423.083 257.325 423.083C255.398 423.083 253.833 424.648 253.833 426.575Z" fill="#5F92B8"/>
<path opacity="0.2" fill-rule="evenodd" clip-rule="evenodd" d="M166.075 443L168.66 449.54L175.2 452.125L168.66 454.71L166.075 461.25L163.49 454.71L156.95 452.125L163.49 449.54L166.075 443Z" fill="#1F6298"/>
<path opacity="0.3" fill-rule="evenodd" clip-rule="evenodd" d="M170.989 452.125C170.989 454.838 168.788 457.039 166.075 457.039C163.362 457.039 161.161 454.838 161.161 452.125C161.161 449.412 163.362 447.211 166.075 447.211C168.788 447.211 170.989 449.412 170.989 452.125Z" fill="#1F6298"/>
<path fill-rule="evenodd" clip-rule="evenodd" d="M162.583 452.125C162.583 454.052 164.148 455.617 166.075 455.617C168.002 455.617 169.567 454.052 169.567 452.125C169.567 450.198 168.002 448.633 166.075 448.633C164.148 448.633 162.583 450.198 162.583 452.125Z" fill="#1F6298"/>
<path opacity="0.2" fill-rule="evenodd" clip-rule="evenodd" d="M250.025 260.5L252.61 267.04L259.15 269.625L252.61 272.21L250.025 278.75L247.44 272.21L240.9 269.625L247.44 267.04L250.025 260.5Z" fill="#6B9ABE"/>
<path opacity="0.3" fill-rule="evenodd" clip-rule="evenodd" d="M254.939 269.625C254.939 272.338 252.738 274.539 250.025 274.539C247.312 274.539 245.111 272.338 245.111 269.625C245.111 266.912 247.312 264.711 250.025 264.711C252.738 264.711 254.939 266.912 254.939 269.625Z" fill="#6B9ABE"/>
<path fill-rule="evenodd" clip-rule="evenodd" d="M246.533 269.625C246.533 271.552 248.098 273.117 250.025 273.117C251.952 273.117 253.517 271.552 253.517 269.625C253.517 267.698 251.952 266.133 250.025 266.133C248.098 266.133 246.533 267.698 246.533 269.625Z" fill="#6B9ABE"/>
<path opacity="0.2" fill-rule="evenodd" clip-rule="evenodd" d="M100.375 253.2L101.926 257.124L105.85 258.675L101.926 260.226L100.375 264.15L98.8242 260.226L94.9 258.675L98.8242 257.124L100.375 253.2Z" fill="#4D83AE"/>
<path opacity="0.2" fill-rule="evenodd" clip-rule="evenodd" d="M103.324 258.675C103.324 260.303 102.003 261.624 100.375 261.624C98.7474 261.624 97.4265 260.303 97.4265 258.675C97.4265 257.047 98.7474 255.726 100.375 255.726C102.003 255.726 103.324 257.047 103.324 258.675Z" fill="#4D83AE"/>
<path fill-rule="evenodd" clip-rule="evenodd" d="M98.28 258.675C98.28 259.831 99.2185 260.77 100.375 260.77C101.531 260.77 102.47 259.831 102.47 258.675C102.47 257.519 101.531 256.58 100.375 256.58C99.2185 256.58 98.28 257.519 98.28 258.675Z" fill="#4D83AE"/>
<path opacity="0.2" fill-rule="evenodd" clip-rule="evenodd" d="M140.525 348.1L142.076 352.024L146 353.575L142.076 355.126L140.525 359.05L138.974 355.126L135.05 353.575L138.974 352.024L140.525 348.1Z" fill="#7BA5C7"/>
<path opacity="0.2" fill-rule="evenodd" clip-rule="evenodd" d="M143.474 353.575C143.474 355.203 142.153 356.524 140.525 356.524C138.897 356.524 137.577 355.203 137.577 353.575C137.577 351.947 138.897 350.627 140.525 350.627C142.153 350.627 143.474 351.947 143.474 353.575Z" fill="#7BA5C7"/>
<path fill-rule="evenodd" clip-rule="evenodd" d="M138.43 353.575C138.43 354.731 139.369 355.67 140.525 355.67C141.681 355.67 142.62 354.731 142.62 353.575C142.62 352.419 141.681 351.48 140.525 351.48C139.369 351.48 138.43 352.419 138.43 353.575Z" fill="#7BA5C7"/>
<path opacity="0.2" fill-rule="evenodd" clip-rule="evenodd" d="M31.025 348.1L32.5758 352.024L36.5 353.575L32.5758 355.126L31.025 359.05L29.4742 355.126L25.55 353.575L29.4742 352.024L31.025 348.1Z" fill="#185C94"/>
<path opacity="0.2" fill-rule="evenodd" clip-rule="evenodd" d="M33.9735 353.575C33.9735 355.203 32.6526 356.524 31.025 356.524C29.3974 356.524 28.0765 355.203 28.0765 353.575C28.0765 351.947 29.3974 350.627 31.025 350.627C32.6526 350.627 33.9735 351.947 33.9735 353.575Z" fill="#185C94"/>
<path fill-rule="evenodd" clip-rule="evenodd" d="M28.93 353.575C28.93 354.731 29.8686 355.67 31.025 355.67C32.1814 355.67 33.12 354.731 33.12 353.575C33.12 352.419 32.1814 351.48 31.025 351.48C29.8686 351.48 28.93 352.419 28.93 353.575Z" fill="#185C94"/>
<path opacity="0.2" fill-rule="evenodd" clip-rule="evenodd" d="M27.375 253.2L28.9258 257.124L32.85 258.675L28.9258 260.226L27.375 264.15L25.8242 260.226L21.9 258.675L25.8242 257.124L27.375 253.2Z" fill="#5689B3"/>
<path opacity="0.2" fill-rule="evenodd" clip-rule="evenodd" d="M30.3235 258.675C30.3235 260.303 29.0026 261.624 27.375 261.624C25.7474 261.624 24.4265 260.303 24.4265 258.675C24.4265 257.047 25.7474 255.726 27.375 255.726C29.0026 255.726 30.3235 257.047 30.3235 258.675Z" fill="#5689B3"/>
<path fill-rule="evenodd" clip-rule="evenodd" d="M25.28 258.675C25.28 259.831 26.2186 260.77 27.375 260.77C28.5314 260.77 29.47 259.831 29.47 258.675C29.47 257.519 28.5314 256.58 27.375 256.58C26.2186 256.58 25.28 257.519 25.28 258.675Z" fill="#5689B3"/>
<path opacity="0.2" fill-rule="evenodd" clip-rule="evenodd" d="M41.975 311.6L43.5258 315.524L47.45 317.075L43.5258 318.626L41.975 322.55L40.4242 318.626L36.5 317.075L40.4242 315.524L41.975 311.6Z" fill="#6494BA"/>
<path opacity="0.2" fill-rule="evenodd" clip-rule="evenodd" d="M44.9236 317.075C44.9236 318.703 43.6026 320.024 41.975 320.024C40.3475 320.024 39.0265 318.703 39.0265 317.075C39.0265 315.447 40.3475 314.126 41.975 314.126C43.6026 314.126 44.9236 315.447 44.9236 317.075Z" fill="#6494BA"/>
<path fill-rule="evenodd" clip-rule="evenodd" d="M39.88 317.075C39.88 318.231 40.8186 319.17 41.975 319.17C43.1315 319.17 44.07 318.231 44.07 317.075C44.07 315.919 43.1315 314.98 41.975 314.98C40.8186 314.98 39.88 315.919 39.88 317.075Z" fill="#6494BA"/>
<path opacity="0.2" fill-rule="evenodd" clip-rule="evenodd" d="M352.225 373.65L353.776 377.574L357.7 379.125L353.776 380.676L352.225 384.6L350.674 380.676L346.75 379.125L350.674 377.574L352.225 373.65Z" fill="#80A6C8"/>
<path opacity="0.2" fill-rule="evenodd" clip-rule="evenodd" d="M355.174 379.125C355.174 380.753 353.853 382.074 352.225 382.074C350.597 382.074 349.276 380.753 349.276 379.125C349.276 377.498 350.597 376.177 352.225 376.177C353.853 376.177 355.174 377.498 355.174 379.125Z" fill="#80A6C8"/>
<path fill-rule="evenodd" clip-rule="evenodd" d="M350.13 379.125C350.13 380.281 351.069 381.22 352.225 381.22C353.381 381.22 354.32 380.281 354.32 379.125C354.32 377.969 353.381 377.03 352.225 377.03C351.069 377.03 350.13 377.969 350.13 379.125Z" fill="#80A6C8"/>
<path opacity="0.2" fill-rule="evenodd" clip-rule="evenodd" d="M89.425 472.2L90.9758 476.124L94.9 477.675L90.9758 479.226L89.425 483.15L87.8742 479.226L83.95 477.675L87.8742 476.124L89.425 472.2Z" fill="#4D83B0"/>
<path opacity="0.2" fill-rule="evenodd" clip-rule="evenodd" d="M92.3735 477.675C92.3735 479.303 91.0526 480.623 89.425 480.623C87.7974 480.623 86.4765 479.303 86.4765 477.675C86.4765 476.047 87.7974 474.727 89.425 474.727C91.0526 474.727 92.3735 476.047 92.3735 477.675Z" fill="#4D83B0"/>
<path fill-rule="evenodd" clip-rule="evenodd" d="M87.33 477.675C87.33 478.832 88.2686 479.77 89.425 479.77C90.5814 479.77 91.52 478.832 91.52 477.675C91.52 476.519 90.5814 475.58 89.425 475.58C88.2686 475.58 87.33 476.519 87.33 477.675Z" fill="#4D83B0"/>
<path opacity="0.2" fill-rule="evenodd" clip-rule="evenodd" d="M253.675 475.85L255.226 479.774L259.15 481.325L255.226 482.876L253.675 486.8L252.124 482.876L248.2 481.325L252.124 479.774L253.675 475.85Z" fill="#326FA3"/>
<path opacity="0.2" fill-rule="evenodd" clip-rule="evenodd" d="M256.624 481.325C256.624 482.953 255.303 484.274 253.675 484.274C252.047 484.274 250.727 482.953 250.727 481.325C250.727 479.697 252.047 478.376 253.675 478.376C255.303 478.376 256.624 479.697 256.624 481.325Z" fill="#326FA3"/>
<path fill-rule="evenodd" clip-rule="evenodd" d="M251.58 481.325C251.58 482.482 252.519 483.42 253.675 483.42C254.831 483.42 255.77 482.482 255.77 481.325C255.77 480.169 254.831 479.23 253.675 479.23C252.519 479.23 251.58 480.169 251.58 481.325Z" fill="#326FA3"/>
<path opacity="0.2" fill-rule="evenodd" clip-rule="evenodd" d="M104.025 457.6L106.61 464.14L113.15 466.725L106.61 469.31L104.025 475.85L101.44 469.31L94.9 466.725L101.44 464.14L104.025 457.6Z" fill="#4980AC"/>
<path opacity="0.3" fill-rule="evenodd" clip-rule="evenodd" d="M108.939 466.725C108.939 469.438 106.738 471.639 104.025 471.639C101.312 471.639 99.1107 469.438 99.1107 466.725C99.1107 464.012 101.312 461.811 104.025 461.811C106.738 461.811 108.939 464.012 108.939 466.725Z" fill="#4980AC"/>
<path fill-rule="evenodd" clip-rule="evenodd" d="M100.533 466.725C100.533 468.652 102.098 470.217 104.025 470.217C105.952 470.217 107.517 468.652 107.517 466.725C107.517 464.798 105.952 463.233 104.025 463.233C102.098 463.233 100.533 464.798 100.533 466.725Z" fill="#4980AC"/>
<path opacity="0.2" fill-rule="evenodd" clip-rule="evenodd" d="M286.525 333.5L289.11 340.04L295.65 342.625L289.11 345.21L286.525 351.75L283.94 345.21L277.4 342.625L283.94 340.04L286.525 333.5Z" fill="#8BAECD"/>
<path opacity="0.3" fill-rule="evenodd" clip-rule="evenodd" d="M291.439 342.625C291.439 345.338 289.238 347.539 286.525 347.539C283.812 347.539 281.611 345.338 281.611 342.625C281.611 339.912 283.812 337.711 286.525 337.711C289.238 337.711 291.439 339.912 291.439 342.625Z" fill="#8BAECD"/>
<path fill-rule="evenodd" clip-rule="evenodd" d="M283.033 342.625C283.033 344.552 284.598 346.117 286.525 346.117C288.452 346.117 290.017 344.552 290.017 342.625C290.017 340.698 288.452 339.133 286.525 339.133C284.598 339.133 283.033 340.698 283.033 342.625Z" fill="#8BAECD"/>
<path opacity="0.2" fill-rule="evenodd" clip-rule="evenodd" d="M268.275 132.75L270.86 139.29L277.4 141.875L270.86 144.46L268.275 151L265.69 144.46L259.15 141.875L265.69 139.29L268.275 132.75Z" fill="#457EAC"/>
<path opacity="0.3" fill-rule="evenodd" clip-rule="evenodd" d="M273.189 141.875C273.189 144.588 270.988 146.789 268.275 146.789C265.562 146.789 263.361 144.588 263.361 141.875C263.361 139.162 265.562 136.961 268.275 136.961C270.988 136.961 273.189 139.162 273.189 141.875Z" fill="#457EAC"/>
<path fill-rule="evenodd" clip-rule="evenodd" d="M264.783 141.875C264.783 143.802 266.348 145.367 268.275 145.367C270.202 145.367 271.767 143.802 271.767 141.875C271.767 139.948 270.202 138.383 268.275 138.383C266.348 138.383 264.783 139.948 264.783 141.875Z" fill="#457EAC"/>
<path opacity="0.2" fill-rule="evenodd" clip-rule="evenodd" d="M253.675 450.3L256.26 456.84L262.8 459.425L256.26 462.01L253.675 468.55L251.09 462.01L244.55 459.425L251.09 456.84L253.675 450.3Z" fill="#195D95"/>
<path opacity="0.3" fill-rule="evenodd" clip-rule="evenodd" d="M258.589 459.425C258.589 462.138 256.388 464.339 253.675 464.339C250.962 464.339 248.761 462.138 248.761 459.425C248.761 456.712 250.962 454.511 253.675 454.511C256.388 454.511 258.589 456.712 258.589 459.425Z" fill="#195D95"/>
<path fill-rule="evenodd" clip-rule="evenodd" d="M250.183 459.425C250.183 461.352 251.748 462.917 253.675 462.917C255.602 462.917 257.167 461.352 257.167 459.425C257.167 457.498 255.602 455.933 253.675 455.933C251.748 455.933 250.183 457.498 250.183 459.425Z" fill="#195D95"/>
<path opacity="0.2" fill-rule="evenodd" clip-rule="evenodd" d="M228.125 366.35L230.71 372.89L237.25 375.475L230.71 378.06L228.125 384.6L225.54 378.06L219 375.475L225.54 372.89L228.125 366.35Z" fill="#427BAB"/>
<path opacity="0.3" fill-rule="evenodd" clip-rule="evenodd" d="M233.039 375.475C233.039 378.188 230.838 380.389 228.125 380.389C225.412 380.389 223.211 378.188 223.211 375.475C223.211 372.762 225.412 370.561 228.125 370.561C230.838 370.561 233.039 372.762 233.039 375.475Z" fill="#427BAB"/>
<path fill-rule="evenodd" clip-rule="evenodd" d="M224.633 375.475C224.633 377.402 226.198 378.967 228.125 378.967C230.052 378.967 231.617 377.402 231.617 375.475C231.617 373.548 230.052 371.983 228.125 371.983C226.198 371.983 224.633 373.548 224.633 375.475Z" fill="#427BAB"/>
<path opacity="0.2" fill-rule="evenodd" clip-rule="evenodd" d="M366.825 103.55L369.41 110.09L375.95 112.675L369.41 115.26L366.825 121.8L364.24 115.26L357.7 112.675L364.24 110.09L366.825 103.55Z" fill="#3470A5"/>
<path opacity="0.3" fill-rule="evenodd" clip-rule="evenodd" d="M371.739 112.675C371.739 115.388 369.538 117.589 366.825 117.589C364.112 117.589 361.911 115.388 361.911 112.675C361.911 109.962 364.112 107.761 366.825 107.761C369.538 107.761 371.739 109.962 371.739 112.675Z" fill="#3470A5"/>
<path fill-rule="evenodd" clip-rule="evenodd" d="M363.333 112.675C363.333 114.602 364.898 116.167 366.825 116.167C368.752 116.167 370.317 114.602 370.317 112.675C370.317 110.748 368.752 109.183 366.825 109.183C364.898 109.183 363.333 110.748 363.333 112.675Z" fill="#3470A5"/>
<path opacity="0.2" fill-rule="evenodd" clip-rule="evenodd" d="M173.375 205.75L175.96 212.29L182.5 214.875L175.96 217.46L173.375 224L170.79 217.46L164.25 214.875L170.79 212.29L173.375 205.75Z" fill="#5A90B9"/>
<path opacity="0.3" fill-rule="evenodd" clip-rule="evenodd" d="M178.289 214.875C178.289 217.588 176.088 219.789 173.375 219.789C170.662 219.789 168.461 217.588 168.461 214.875C168.461 212.162 170.662 209.961 173.375 209.961C176.088 209.961 178.289 212.162 178.289 214.875Z" fill="#5A90B9"/>
<path fill-rule="evenodd" clip-rule="evenodd" d="M169.883 214.875C169.883 216.803 171.448 218.367 173.375 218.367C175.302 218.367 176.867 216.803 176.867 214.875C176.867 212.948 175.302 211.383 173.375 211.383C171.448 211.383 169.883 212.948 169.883 214.875Z" fill="#5A90B9"/>
<path opacity="0.2" fill-rule="evenodd" clip-rule="evenodd" d="M89.425 198.45L90.9758 202.374L94.9 203.925L90.9758 205.476L89.425 209.4L87.8742 205.476L83.95 203.925L87.8742 202.374L89.425 198.45Z" fill="#73A0C1"/>
<path opacity="0.2" fill-rule="evenodd" clip-rule="evenodd" d="M92.3735 203.925C92.3735 205.553 91.0526 206.874 89.425 206.874C87.7974 206.874 86.4765 205.553 86.4765 203.925C86.4765 202.297 87.7974 200.977 89.425 200.977C91.0526 200.977 92.3735 202.297 92.3735 203.925Z" fill="#73A0C1"/>
<path fill-rule="evenodd" clip-rule="evenodd" d="M87.33 203.925C87.33 205.081 88.2686 206.02 89.425 206.02C90.5814 206.02 91.52 205.081 91.52 203.925C91.52 202.769 90.5814 201.83 89.425 201.83C88.2686 201.83 87.33 202.769 87.33 203.925Z" fill="#73A0C1"/>
<path opacity="0.2" fill-rule="evenodd" clip-rule="evenodd" d="M286.525 174.5L288.076 178.424L292 179.975L288.076 181.526L286.525 185.45L284.974 181.526L281.05 179.975L284.974 178.424L286.525 174.5Z" fill="#739FC2"/>
<path opacity="0.2" fill-rule="evenodd" clip-rule="evenodd" d="M289.474 179.975C289.474 181.603 288.153 182.924 286.525 182.924C284.897 182.924 283.576 181.603 283.576 179.975C283.576 178.348 284.897 177.027 286.525 177.027C288.153 177.027 289.474 178.348 289.474 179.975Z" fill="#739FC2"/>
<path fill-rule="evenodd" clip-rule="evenodd" d="M284.43 179.975C284.43 181.132 285.369 182.07 286.525 182.07C287.681 182.07 288.62 181.132 288.62 179.975C288.62 178.819 287.681 177.88 286.525 177.88C285.369 177.88 284.43 178.819 284.43 179.975Z" fill="#739FC2"/>
<path opacity="0.2" fill-rule="evenodd" clip-rule="evenodd" d="M114.975 158.3L116.526 162.224L120.45 163.775L116.526 165.326L114.975 169.25L113.424 165.326L109.5 163.775L113.424 162.224L114.975 158.3Z" fill="#3572A4"/>
<path opacity="0.2" fill-rule="evenodd" clip-rule="evenodd" d="M117.924 163.775C117.924 165.403 116.603 166.724 114.975 166.724C113.347 166.724 112.026 165.403 112.026 163.775C112.026 162.147 113.347 160.826 114.975 160.826C116.603 160.826 117.924 162.147 117.924 163.775Z" fill="#3572A4"/>
<path fill-rule="evenodd" clip-rule="evenodd" d="M112.88 163.775C112.88 164.931 113.819 165.87 114.975 165.87C116.131 165.87 117.07 164.931 117.07 163.775C117.07 162.619 116.131 161.68 114.975 161.68C113.819 161.68 112.88 162.619 112.88 163.775Z" fill="#3572A4"/>
<path opacity="0.2" fill-rule="evenodd" clip-rule="evenodd" d="M250.025 234.95L251.576 238.874L255.5 240.425L251.576 241.976L250.025 245.9L248.474 241.976L244.55 240.425L248.474 238.874L250.025 234.95Z" fill="#6A99BE"/>
<path opacity="0.2" fill-rule="evenodd" clip-rule="evenodd" d="M252.974 240.425C252.974 242.053 251.653 243.374 250.025 243.374C248.397 243.374 247.076 242.053 247.076 240.425C247.076 238.797 248.397 237.477 250.025 237.477C251.653 237.477 252.974 238.797 252.974 240.425Z" fill="#6A99BE"/>
<path fill-rule="evenodd" clip-rule="evenodd" d="M247.93 240.425C247.93 241.581 248.869 242.52 250.025 242.52C251.181 242.52 252.12 241.581 252.12 240.425C252.12 239.269 251.181 238.33 250.025 238.33C248.869 238.33 247.93 239.269 247.93 240.425Z" fill="#6A99BE"/>
</g>
</svg>
